<svg xmlns="http://www.w3.org/2000/svg" xmlns:xlink="http://www.w3.org/1999/xlink" viewBox="0 0 501.34 364.74" xmlns:v="https://vecta.io/nano"><style><![CDATA[.n{fill:#f4b979}.o{fill:#371b5f}.p{fill:#222433}.q{fill:#ccc4dd}.r{fill:#2d0f49}.s{fill:#2d184f}]]></style><defs><linearGradient id="A" x1="118.676" y1="5.339" x2="369.06" y2="435.854" xlink:href="#R"><stop offset=".24" stop-color="#f5f5f5"/><stop offset="1" stop-color="#fff"/></linearGradient><linearGradient id="B" x1="334.52" y1="223.56" x2="363.88" y2="223.56" xlink:href="#R"><stop offset="0" stop-color="#7b31dd"/><stop offset="1" stop-color="#4100db"/></linearGradient><linearGradient id="C" x1="361.65" y1="218.09" x2="370.59" y2="201.66" xlink:href="#B"/><linearGradient id="D" x1="331.4" y1="209.7" x2="341.02" y2="230.07" xlink:href="#B"/><linearGradient id="E" x1="399.55" y1="197.41" x2="415.63" y2="197.41" xlink:href="#R"><stop offset="0" stop-color="#e2932e"/><stop offset=".1" stop-color="#e59f36"/><stop offset=".36" stop-color="#ebba47"/><stop offset=".6" stop-color="#efca51"/><stop offset=".78" stop-color="#f0d055"/></linearGradient><linearGradient id="F" x1="402.24" y1="203.58" x2="451.48" y2="203.58" xlink:href="#R"><stop offset="0" stop-color="#fa941b"/><stop offset=".1" stop-color="#faa024"/><stop offset=".36" stop-color="#fbbb38"/><stop offset=".6" stop-color="#fbcb44"/><stop offset=".78" stop-color="#fbd148"/></linearGradient><linearGradient id="G" x1="397.06" y1="196.6" x2="420.18" y2="196.6" xlink:href="#F"/><linearGradient id="H" x1="240.93" y1="236.19" x2="411.11" y2="236.19" xlink:href="#R"><stop offset="0" stop-color="#a68ddb"/><stop offset="1" stop-color="#ccc4dd"/></linearGradient><linearGradient id="I" x1="383.59" y1="280.5" x2="387.71" y2="280.5" xlink:href="#H"/><linearGradient id="J" x1="251.18" y1="280.5" x2="255.29" y2="280.5" xlink:href="#H"/><linearGradient id="K" x1="267.31" y1="172.28" x2="282.13" y2="172.28" xlink:href="#E"/><linearGradient id="L" x1="318.45" y1="57.89" x2="318.45" y2="133.9" xlink:href="#R"><stop offset=".02" stop-color="#fff"/><stop offset=".51" stop-color="#fff" stop-opacity="0"/></linearGradient><linearGradient id="M" x1="318.42" y1="161.81" x2="318.42" y2="142.61" xlink:href="#R"><stop offset="0" stop-color="#282c52"/><stop offset="1" stop-color="#383c60"/></linearGradient><linearGradient id="N" x1="181.08" y1="139.62" x2="263.47" y2="172.36" xlink:href="#R"><stop offset="0" stop-color="#a68ddb"/><stop offset=".08" stop-color="#b29fdc"/><stop offset=".18" stop-color="#beb0dc"/><stop offset=".31" stop-color="#c6bbdd"/><stop offset=".49" stop-color="#cbc2dd"/><stop offset="1" stop-color="#ccc4dd"/></linearGradient><linearGradient id="O" x1="167.73" y1="154.98" x2="191.27" y2="154.98" xlink:href="#F"/><linearGradient id="P" x1="198.87" y1="155.04" x2="240.29" y2="155.04" xlink:href="#F"/><path id="Q" d="M176.16 89.43a2.33 2.33 0 1 1 2.33 2.33h0a2.34 2.34 0 0 1-2.33-2.33z"/><linearGradient id="R" gradientUnits="userSpaceOnUse"/></defs><path d="M37.28 94.58c19.34-24.92 85.5-105 151.46-93.44C230.45 8.46 292 56 303.36 64.68c12.24 9.42 21.48 17.67 38.9 26.62 31.55 16.2 44.58 11.47 75.7 24.3 18.58 7.67 45.58 18.8 64.2 45.5 23 33 19.47 70.06 18.33 82.1-.86 9.14-6.2 56.12-43.9 89.23S371.46 365 327.3 364.66c-46.3-.43-48.8-10.66-125.77-14.78-31-1.67-48-2.58-72.73-1-37.62 2.42-44.12 7.48-58.73 3.53-40.86-11-58.34-69.06-62.7-83.56-24-79.85 17.27-153.45 29.9-174.27z" fill="url(#A)"/><ellipse cx="320.95" cy="326.61" rx="150.85" ry="8.72" class="q"/><path d="M305 230.88h-3.6v-8.48h3.6a3.15 3.15 0 0 1 3.11 3.16v2.17a3.15 3.15 0 0 1-3.11 3.15zm-2.36-1.24H305a1.91 1.91 0 0 0 1.91-1.92v-2.16a1.91 1.91 0 0 0-1.91-1.92h-2.36z" fill="#2e218e"/><path d="M300.74 180.16a7 7 0 0 0-3.8 2.67 8.44 8.44 0 0 0-1.58 3.82c-.4 2.72.32 5.66 1.27 8.8l.74 2.45.7 2.6a23.1 23.1 0 0 1 .75 5.67 13.36 13.36 0 0 1-1.32 5.82 8.36 8.36 0 0 1-4.16 4.09l-.38-.43a10.09 10.09 0 0 0 1.46-4.58 14.8 14.8 0 0 0-.37-4.5c-.66-3-2.05-6-3.14-9.5l-.68-2.74a21.51 21.51 0 0 1-.39-2.9 14.24 14.24 0 0 1 .87-6.1 10.23 10.23 0 0 1 4.07-4.86 8.15 8.15 0 0 1 2.94-1.12 6 6 0 0 1 3 .23z" fill="#dadefe"/><path d="M298.7 219.9h-9.5v10.9a3.56 3.56 0 0 0 3.55 3.54h5.73a3.53 3.53 0 0 0 3.54-3.54h0v-10.9z" fill="#3b22a8"/><path d="M298.7 219.9v10a3.55 3.55 0 0 1-3.55 3.55h-4.7a3.51 3.51 0 0 0 2.32.87h5.73a3.53 3.53 0 0 0 3.54-3.54h0V219.9z" fill="#2e218e"/><g class="r"><path d="M363.3 267.03h3.45v54.14h-3.45z"/><path d="M369 268.68l-37.9-.5-3.2-54.42A12.1 12.1 0 0 1 339.35 201h.73l22.58-.23c9.92 0 15.2 9.13 13.78 18.93z"/></g><path d="M333.7 254.08h23a12.41 12.41 0 0 1 12.41 12.41h0v2.27h-47.82v-2.27a12.41 12.41 0 0 1 12.41-12.41z" fill="#220d3a"/><path d="M323.58 267.03h3.45v54.14h-3.45z" class="r"/><path d="M358.85 172.35a8.81 8.81 0 0 1 8.47 5.17c2.67 6.22-2.5 13.53-.56 20 .8 2.7 2.76 4.86 4.4 7.13s3.16 4.94 2.82 7.73a7.68 7.68 0 0 1-5.85 6.2 11 11 0 0 1-8.63-1.74 20.52 20.52 0 0 1-6-6.67c-5.44-9-7.92-23.54-1.86-32.82 1.7-2.65 3.84-4.77 7.2-5z" class="o"/><path d="M354 180.8a8.55 8.55 0 0 1 8.18 4.66c2.62 5.6-2.4 12.16-.53 18 .8 2.42 2.62 4.36 4.26 6.42s3 4.44 2.7 7c-.35 2.7-2.8 4.93-5.64 5.58a11.32 11.32 0 0 1-8.32-1.58 19 19 0 0 1-5.81-6c-5.23-8.06-7.63-21.2-1.8-29.53 1.64-2.42 3.72-4.34 6.95-4.55z" class="s"/><path d="M347.07 202h4.27a12.55 12.55 0 0 1 12.59 12.51v30.28a.39.39 0 0 1-.39.39H334.9a.39.39 0 0 1-.39-.39h0V214.5A12.54 12.54 0 0 1 347.07 202z" fill="url(#B)"/><path d="M367.77 213.5s10.66 12.38 8.35 20.15c0 0 0 4-16.57-.15l-13.95-2.3-.58-3.88a106.21 106.21 0 0 1 23.75 1.74c-1.1-1.23-2.1-2.52-3.07-3.85a29.63 29.63 0 0 1-4.27-7.52z" class="n"/><path d="M355.2 203.07s10.25-1.2 18.7 19.34l-9.22 3.65s-6-8.07-6.87-15.07-2.6-7.92-2.6-7.92z" fill="url(#C)"/><path d="M328.75 213.3s-11.9 11.9-13 19.46c0 0 .17 2.26 17.2 1h14.66l1.15-2.92a110.87 110.87 0 0 0-23.7-2.42c1.18-.93 2.4-2 3.7-3.25a29.67 29.67 0 0 0 5.52-6.66z" class="n"/><path d="M343.7 202.82s-10.6-.53-22.52 18.2l8.43 5.23s7.28-6.92 9.35-13.7 4.74-9.75 4.74-9.75z" fill="url(#D)"/><path d="M324.35 231.03h36.85v3.3h-36.85z" fill="#796c9e"/><path d="M446.26 314.27c-2.2 2.14-14.66 5.3-15.44 6.52a1.54 1.54 0 0 0-.13 1.47c.62 1.3 2.86.66 4 .6l15.53-.7.14.8 4.75-.22-.33-8.72s-3.65.17-8.52.24z" fill="#34364d"/><path d="M428.94 310.14c-1.93 2.4-13.95 7-14.55 8.33a1.53 1.53 0 0 0 0 1.47c.78 1.22 2.93.3 4 .14l15.34-2.55.24.77 4.67-.8-1.36-8.6-8.34 1.22z" class="p"/><path d="M403.65 205l-1.6 24c-.17 2.48-4.05 2.14-5.74 2.4-2.66.45-6 1.43-8.07 3.28.73.4 2.18.25 3 .3l3.3.14 6.8.22s6.1-.4 5.93-4 4.44-25.57 4.44-25.57z" fill="#dba66d"/><path d="M399.55 210.46l13.5 2 2.3-18.53c.55-4 .73-10.47-3.32-11.25-.08 0-.87-.26-1-.27-4.55-.8-10.78 5.66-10.94 10.15z" fill="url(#E)"/><path d="M432.62 224.1l-15.7 37a13.65 13.65 0 0 0-.64 8.89l11.34 41.4 9.83-1c-.6-6.48.28-27.08-3.32-33.66a11.16 11.16 0 0 1 .22-11.34l4.4-7.1 2.57-34z" class="s"/><path d="M448.5 217l-2.37-6.34s12.44 11.24 10.66 21.62c-1.53 8.94-4.17 29.28-4.86 34.68a6.07 6.07 0 0 0 .24 2.61l2.9 9.1a19.84 19.84 0 0 1 .92 6.63l-1 29.07h-10l-8.45-45.7a9.3 9.3 0 0 1-.16-1.58l-.77-43.4z" class="o"/><path d="M413.8 180.05c7.44 1.67 24.27 10 37.3 36.1 1.74 3.5-3.07 7.56-5.7 9a20.46 20.46 0 0 1-6.91 2 27.82 27.82 0 0 1-4.08.21c-.57 0-4.12.1-4.36-.36a52.31 52.31 0 0 0-3.88-6.68c-1.58-2.26-3.5-4.7-5.8-7.72a83.28 83.28 0 0 0-15.79-15.76 10.56 10.56 0 0 1-2.35-6.1 11.84 11.84 0 0 1 2.94-7.93 8.72 8.72 0 0 1 8.63-2.75z" fill="url(#F)"/><path d="M405.78 192.78l-13.78 14a7.88 7.88 0 0 1-2.87 1.85l-22 8.16a6.48 6.48 0 0 1-4.47 0l-2.66-1a6.6 6.6 0 0 0-3.24-.28l-10.94 2 .14 1.2 9.1.13 1.4 2.5a4.7 4.7 0 0 0 5.24 2.19l31.3-7.9a10.83 10.83 0 0 0 4.18-2.12l15.32-12.7zm-17.93-18.18a1.29 1.29 0 0 0-.15-1.13c-.94-1.4-3-5.54 2.66-9.7 0 0 10.14-6.35 14.63 3.68a8 8 0 0 1-.14 7.37c-.47.87 5.15 4.9 5.83 5.13s2.3 3.7-7 8c-.4-.63-.54-.68-1.17-1.55-2-2.8-4.5-4.1-6.7-3.26-1 .4-2.85 1.75-4 1.16-.6-.3-1.83-3-2.17-3.32l-.17-.14a1.53 1.53 0 0 1-.53-1.1v-.7l-1.4-.6a1.06 1.06 0 0 1-.61-1.34z" class="n"/><path d="M399.17 174.14l1.15-.17a3.26 3.26 0 0 1-.44-1.67 1.12 1.12 0 0 1 1.19-1c.77.14.88 1.13 1.05 1.87a4.79 4.79 0 0 0 5.35 3.55 33.42 33.42 0 0 0-.23-8.3 11.23 11.23 0 0 0-4.17-7 12.51 12.51 0 0 0-7.53-1.94 20.66 20.66 0 0 0-8.07 1.87 8.83 8.83 0 0 0-3.14 2.16 4 4 0 0 0-1 3.49 4.44 4.44 0 0 0 3.72 2.92 13.62 13.62 0 0 0 5-.45c1.3-.28 3.75-1.14 4.78-.07.42.44 1.92 4.8 2.34 4.74z" class="o"/><path d="M397.06 199.12l9.1 9.23 11.76-11.15a7.13 7.13 0 0 0 .45-10l-.14-.15a7.55 7.55 0 0 0-10.67 0c-.15.14-.3.3-.43.45z" fill="url(#G)"/><path d="M354.2 234.37H324l-8.1-17.44a.58.58 0 0 1 .27-.76.7.7 0 0 1 .25 0h27.28a3.2 3.2 0 0 1 2.91 1.86z" class="q"/><path d="M411.1 238.07H240.93l1.36-3.77h167.45l1.37 3.77z" fill="url(#H)"/><g class="n"><path d="M339.76 188.25s.58 13.17 4.64 13.72c5 .67 8.44-1.85 9.28-6.3.34-1.74-.07-6.93-.53-10.2-.3-2-2.67-4-4.72-4.36a8.68 8.68 0 0 0-4.17.36 6.09 6.09 0 0 0-4.5 6.76z"/><path d="M345.75 199.38v4.75a4.41 4.41 0 0 0 4.75 2.16c3.26-.68 2.74-2.8 2.74-2.8l-.48-9.38z"/></g><path d="M359.5 186.36a11.08 11.08 0 0 0-9.13-8.93 11.8 11.8 0 0 0-9.41 2.94 9.92 9.92 0 0 0-3.36 9.75c2.72.76 13.43.75 15.46.63.1 2.18.8 4 .87 6.22 4.26-1.6 6.27-6.1 5.57-10.6z" class="o"/><path d="M355.4 194c-.26 1.12-1.05 1.9-1.75 1.74s-1.1-1.2-.87-2.33 1-1.9 1.75-1.74 1.12 1.2.87 2.33z" class="n"/><path d="M353.74 191.94l-.5-.6-2.8 2.28a2.77 2.77 0 0 0-2.61-1.56 2.9 2.9 0 0 0-2.48 1.25 2.64 2.64 0 0 0-2.1 0l-.1.07a2.89 2.89 0 0 0-2.52-1.29 2.58 2.58 0 0 0-2.79 2.26 2.85 2.85 0 0 0 5.58 0 .37.37 0 0 1 .21-.36 1.9 1.9 0 0 1 1.46.08 1.31 1.31 0 0 0 0 .28 2.86 2.86 0 0 0 5.56.19zm-11.1 2.4c0 .83-.87 1.5-2 1.5s-2-.7-2-1.5.87-1.5 2-1.5a2 2 0 0 1 2 1.17h.1a1.14 1.14 0 0 0-.08.33zm5.2 1.5c-1.1 0-2-.67-2-1.5s.87-1.5 2-1.5 2 .67 2 1.5-.9 1.5-2 1.5z" fill="#414460"/><path d="M345.5 201.88l.24 2.25s2.6 3.66 5.43-3 .34-1.74.34-1.74-2.52 3.1-6 2.5z" fill="#c99864"/><path d="M357.93 182.33a3.83 3.83 0 0 0 .45-1.75 4.1 4.1 0 0 0-4.2-4 4.39 4.39 0 0 0-2.83 1.06 11.34 11.34 0 0 1 6.58 4.69z" fill="#fdd247"/><path d="M383.6 237.94h4.12v85.1h-4.12z" fill="url(#I)"/><path d="M237.85 297.12l-2.45 8.74-5.28-1.54 2.7-8.88 5.03 1.68z" class="n"/><path d="M212.38 257.28l26.43 5a1.14 1.14 0 0 1 .78 1.41 1.07 1.07 0 0 1-.2.38c-2.15 2.74-6.6 10.94-9.06 33.74l7.2 1.8L254 259l1.3-9.77z" class="s"/><path d="M275.53 279.62a34.92 34.92 0 0 1 10.79 10.27 3.75 3.75 0 0 1 .31 5 3.66 3.66 0 0 1-5.15.51l-.2-.17a39.69 39.69 0 0 1-9.89-9.37 2.3 2.3 0 0 1-.65-2.3l.92-3.55z" class="p"/><path d="M274 276.9l2.74 4a2.42 2.42 0 0 1 .34 1.92h0a2.36 2.36 0 0 1-2.87 1.69h-.16l-.56-.18a2.36 2.36 0 0 1-1.34-1.16l-2.4-4.68z" class="n"/><path d="M206.4 238.15s-7 11.67-1.54 20.24 42.37-5.48 42.37-5.48 17.83 25.9 22.12 27.6c0 0 5.32 0 6.35-2.73 0 0-14.42-34.48-25.73-36.2l-27.62.87z" class="o"/><path d="M204.96 322.7h-5.84l6.86-58.66h5.84l-6.86 58.66zm32.92 0h5.84l-6.86-58.66h-5.83l6.85 58.66z" class="r"/><path d="M217.9 263.54h5.66v58.92h-5.66z" fill="#220d3a"/><path d="M240.38 267.3H204a3.83 3.83 0 0 1-3.6-4h0a3.84 3.84 0 0 1 3.6-4h36.37a3.84 3.84 0 0 1 3.6 4h0a3.84 3.84 0 0 1-3.59 4z" class="r"/><path d="M244.22 311.4l-5.6-6.64a14.13 14.13 0 0 0-.57-1.7c-.18-.44-.45-.93-.87-1a1 1 0 0 0-.95.64 2.14 2.14 0 0 0-.15 1.06c-3-.08-5.67-2.78-5.67-2.78a10.55 10.55 0 0 0-2.68 4.7 1.25 1.25 0 0 0 .52 1.39l15.93 9.9.63-1a4.35 4.35 0 0 0-.58-4.57z" class="p"/><path d="M278.88 211.3l4.37.77-8.23 22.13-4.63-.13 8.5-22.77z" class="q"/><path d="M269.75 234c-3-7.2-9.72-5.83-13.5-4.36a6.34 6.34 0 0 1-2.62.4c-1.37-.07-2.74-.1-4.1-.12h-6.1l-6 .24-2.8.16c-.5-.9-1-1.84-1.48-2.76-.87-1.7-1.65-3.44-2.4-5.2s-1.44-3.5-2.06-5.32-1.2-3.6-1.74-5.44v-.05a5 5 0 0 0-6.2-3.24h0a5 5 0 0 0-3.37 5.69 49 49 0 0 0 1.57 6.32 57.68 57.68 0 0 0 2.32 6.24 55.16 55.16 0 0 0 3.09 5.9 58.08 58.08 0 0 0 3.7 5.5l.24.3a4.43 4.43 0 0 0 4.3 1.75c2-.34 4-.77 5.93-1.16s3.94-.87 5.9-1.3 3.93-1 5.88-1.5a102.29 102.29 0 0 0 4.22-1.26z" fill="#c99864"/><path d="M227.94 209.26l3.26 7.67a9 9 0 0 1-2 9.95l-4.07 4-2.45 11.73a28 28 0 0 1-18.68-3.25s4.88-10.3 4.63-18.8S212 202 221.7 204.88z" fill="#fad04b"/><path d="M221.12 205s2.2 5.14 5.53 5.9l.37-6.72a2.91 2.91 0 0 1 3-2.74 3.87 3.87 0 0 1 .68.12l.87.26a3.48 3.48 0 0 0 4.12-1.91l.88-1.9a2.79 2.79 0 0 1 2.32-1.64h0a1.17 1.17 0 0 0 1.06-1.26v-.15l-.48-2.2 1.9-4.27a5.27 5.27 0 0 0 .11-4.07c-1.13-3-3.94-7.78-10.26-7.6-9 .25-11.18 4.1-13.08 15.3z" class="n"/><path d="M234.8 174.35a13.88 13.88 0 0 0-12.26 2c-4.86 3.56-7.3 10.28-13 12.33-4 1.44-9.64-.93-12.06 3.83a14.23 14.23 0 0 0-1.13 5 12.74 12.74 0 0 1-1.22 4.93c-1.1 2-3.13 3.27-4.23 5.24a13.94 13.94 0 0 0-1.23 7.74c.87 8.17 9.45 15.07 17.36 10.3 3.53-2.12.87-7.43 1.86-10.78a21.68 21.68 0 0 1 2.43-6 8.09 8.09 0 0 1 5.23-3.92c2.22-.35 4.68.62 6.6-.54 2.1-1.27 2.2-4.27 1.88-6.73s-.66-5.3 1.1-7a6 6 0 0 1 4.27-1.38 43.7 43.7 0 0 0 4.58.09c2.3-.26 5.38-1.32 6.73-3.18a11 11 0 0 0 1.1-1.8c.93-2.38-.55-5-2.4-6.82a15.1 15.1 0 0 0-5.63-3.32z" class="o"/><path d="M253.24 230.6h21.1v3.6h-21.1z" fill="#796c9e"/><path d="M265 234.47c-3-7.2-9.72-5.84-13.5-4.36a6.51 6.51 0 0 1-2.62.4c-1.37-.07-2.74-.1-4.1-.13l-6.1.05-6.05.23-2.8.17-1.48-2.77c-.87-1.7-1.65-3.43-2.4-5.18s-1.44-3.5-2.06-5.32-1.2-3.6-1.74-5.44v-.06a5 5 0 0 0-6.19-3.24h0a5 5 0 0 0-3.37 5.69 49.07 49.07 0 0 0 1.58 6.32 58.47 58.47 0 0 0 5.47 12.09 60.15 60.15 0 0 0 3.71 5.5l.24.32a4.44 4.44 0 0 0 4.29 1.74c2-.33 3.95-.77 5.93-1.15s3.95-.87 5.92-1.3 3.93-1 5.88-1.5a106.97 106.97 0 0 0 4.22-1.25zm32.2 75l-3.45 5.58 4.5 3.07 3.64-5.57-4.7-3.08z" class="n"/><path d="M294.77 315a17.91 17.91 0 0 0-13.31-3.29 1 1 0 0 0-.78 1.12.94.94 0 0 0 .39.63l15.33 9.6s3.5-4.36 2.2-6.06a3.15 3.15 0 0 1-3.83-1.99z" class="p"/><path d="M326.43 254.65l-31.7 56.52a51.6 51.6 0 0 0 6.44 5.18l19.3-29 7.32-4.7c7.42-4.86 22.68-20.73 22.68-20.73z" class="s"/><path d="M327.15 310.85l1.64 8.2h5.4l-1.66-8.78-5.37.58z" class="n"/><path d="M362.92 244.48l-44.42.15a9.79 9.79 0 0 0-9.75 9.83 9.58 9.58 0 0 0 .3 2.38l16.13 55.4h8.48l-3.08-27.12a5.23 5.23 0 0 1 .1-1.63 22.08 22.08 0 0 0-5.37-20.06c4.56 2 11.94 2.84 18.94 3.2a18 18 0 0 0 18.84-17.05v-.34z" class="o"/><path d="M329.58 317.88a18.66 18.66 0 0 0-13.76 5.39.88.88 0 0 0 .09 1.23.92.92 0 0 0 .53.21l19.35-.82s.4-5.8-1.7-6.52a3.31 3.31 0 0 1-4.51.51z" class="p"/><path d="M251.18 237.94h4.12v85.1h-4.12z" fill="url(#J)"/><path d="M280.22 170.38h-3.65v-3.63a1.89 1.89 0 1 0-3.77 0v3.63h-3.64a1.89 1.89 0 0 0 0 3.78h3.64v3.63a1.89 1.89 0 0 0 3.77 0h0v-3.6h3.65a1.89 1.89 0 0 0 0-3.77z" fill="url(#K)"/><path d="M439.9 158.73l4.7.55 2-4.05-3.32-3.4.23-3.56 3.7-2.93-1.4-4.28-4.74-.07-2.34-2.68.55-4.7-4.06-2-3.4 3.3-3.55-.24-2.93-3.7-4.28 1.45-.07 4.73-2.7 2.35-4.68-.55-2 4.05 3.3 3.4-.23 3.55-3.7 2.93 1.45 4.28 4.73.08 2.34 2.68-.52 4.7 4.06 2 3.4-3.3 3.56.24 2.93 3.7 4.28-1.45.07-4.72zm-4.36-2.27a9.77 9.77 0 1 1 .87-13.79 9.76 9.76 0 0 1-.87 13.79h0z" fill="#370b96"/><path d="M401.42 145.88l4.7.55 2-4.06-3.3-3.4.24-3.55 3.7-2.93-1.44-4.3-4.73-.07-2.35-2.67.55-4.7-4.05-2-3.4 3.3-3.56-.24-2.93-3.7-4.28 1.45-.07 4.73-2.7 2.34-4.7-.55-2 4.06 3.3 3.4-.3 3.56-3.7 2.93 1.45 4.28 4.72.07 2.36 2.68-.56 4.7 4.05 2 3.4-3.28 3.55.22 2.93 3.72 4.28-1.46.07-4.72zm-4.36-2.27a9.77 9.77 0 1 1 .86-13.79h0a9.75 9.75 0 0 1-.86 13.79z" fill="#f99320"/><path d="M458.83 88.7l-18.14 23.26 12.76.4-5.24 15.6 19.23-24.6-13.3.13 4.7-14.78zM347.2 106.2a28.78 28.78 0 1 0-51.19 18 34.2 34.2 0 0 1 7.74 21.41v.54h29.4v-.54a33.23 33.23 0 0 1 7.49-21.1 28.6 28.6 0 0 0 6.57-18.31z" fill="#fad04b"/><path d="M342.55 109.92a24.32 24.32 0 0 0-20.17-27.84 24.72 24.72 0 0 0-3.94-.31h-.6a24.4 24.4 0 0 0-23.5 28.14z" fill="url(#L)"/><path d="M317.2 146.1h-1.66v-30.6a4 4 0 1 0-4 3.94h1.92v1.66h-1.88a5.61 5.61 0 1 1 5.6-5.6h0zm4.25 0h-1.66v-30.6a5.61 5.61 0 1 1 5.6 5.6h-1.88v-1.66h1.88a4 4 0 1 0-3.94-4v30.6z" fill="#fff"/><path d="M303.87 146H333v12.8a7 7 0 0 1-7 7h-15.2a7 7 0 0 1-7-7V146z" fill="url(#M)"/><path d="M310,165.33h16.92v3.18a3.06,3.06,0,0,1-3,3.08H313a3.05,3.05,0,0,1-3.05-3.06v-3.2Z" fill="#202442"/><path d="M177.32,83h77.9a8.72,8.72,0,0,1,8.72,8.72h0V125a6.85,6.85,0,0,1-6.85,6.85H175.45A6.85,6.85,0,0,1,168.6,125V91.76A8.72,8.72,0,0,1,177.32,83Z" class="q"/><path d="M263.94,95.24V91.76A8.72,8.72,0,0,0,255.22,83h-77.9a8.72,8.72,0,0,0-8.72,8.72v3.48Z" fill="#321392"/><g fill="#fff"><use xlink:href="#Q"/><use xlink:href="#Q" x="8.72"/><use xlink:href="#Q" x="17.44"/><path d="M179.68 102.22h77v3.92h-77zm0 7.85h77V114h-77zm0 7.85h77v3.92h-77z"/></g><rect x="175.04" y="145.82" width="88.65" height="18.02" rx="4.94" fill="url(#N)"/><circle cx="179.5" cy="154.97" r="16.13" fill="#321392"/><circle cx="179.5" cy="154.97" r="11.77" fill="url(#O)"/><path d="M184.94 155.63l-8.2 4.94a.78.78 0 0 1-1.07-.27.87.87 0 0 1-.1-.39V150a.77.77 0 0 1 .77-.77.72.72 0 0 1 .4.12l8.2 4.93a.77.77 0 0 1 .27 1.05.87.87 0 0 1-.27.3z" fill="#fff"/><path d="M198.87 153.08h57.77V157h-57.77z" fill="#bdbecf"/><path d="M198.87 153.08h41.42V157h-41.42z" fill="url(#P)"/></svg>