<svg xmlns="http://www.w3.org/2000/svg" xmlns:xlink="http://www.w3.org/1999/xlink" viewBox="0 0 374.36 405.14" xmlns:v="https://vecta.io/nano"><defs><clipPath id="A"><path d="M174.12 88.72c-18.24 9.85-39.3 12.58-59.57 17s-41.22 11.17-55 26.67C49.12 144.13 44 162.1 51.48 176c5.35 10 16 16.12 22.44 25.43 12.77 18.37 6.35 44.16-5.77 63S38.9 298.66 28.7 318.57s-11.1 47.7 6.47 61.55c16.26 12.82 40.56 7.78 58.22-3s32.1-26.6 50.54-36c20.9-10.64 45.28-12.23 68.7-10.84s46.68 5.52 70.15 5.5 47.85-4.6 66.54-18.78 30.1-39.6 22.82-61.9c-4.6-14.1-15.6-25-25.3-36.18S328 194.4 328.5 179.58c.52-15.62 11.48-28.65 17.57-43 12.54-29.64 3-65.74-18.83-89.36s-54.1-35.74-86.17-38.34C230.9 8 220 8.26 211.5 14c-15.4 10.42-4.2 24.16-7.26 38.08-3.5 15.92-16.12 29.1-30.12 36.64z" fill="none"/></clipPath><linearGradient id="B" x1="119.77" y1="263" x2="226.09" y2="263" gradientUnits="userSpaceOnUse"><stop offset="0" stop-color="#cecdfd"/><stop offset="1" stop-color="#f2cdfa"/></linearGradient><linearGradient id="C" x1="154.29" y1="208.54" x2="221.1" y2="208.54" gradientUnits="userSpaceOnUse"><stop offset="0" stop-color="#e2932e"/><stop offset=".1" stop-color="#e59f36"/><stop offset=".36" stop-color="#ebba47"/><stop offset=".6" stop-color="#efca51"/><stop offset=".78" stop-color="#f0d055"/></linearGradient><linearGradient id="D" x1="199.64" y1="214.06" x2="261.84" y2="214.06" xlink:href="#C"/><linearGradient id="E" x1="190.13" y1="220.31" x2="260.65" y2="220.31" xlink:href="#C"/><linearGradient id="F" x1="91.7" y1="250.61" x2="177.67" y2="250.61" xlink:href="#B"/><linearGradient id="G" x1="100.96" y1="107.64" x2="153.91" y2="107.64" xlink:href="#C"/><path id="H" d="M322.4 278.3L262 313.38c-14.75 8.58-38.76 8.58-53.6 0l-60.74-35.08c-7.48-4.3-11.2-10-11.2-15.63l-.16 55c0 5.66 3.72 11.32 11.2 15.64l60.77 35.08c14.84 8.57 38.85 8.57 53.6 0l60.37-35.08c7.33-4.26 11-9.84 11-15.42l.16-55c-.01 5.58-3.68 11.1-11 15.4z"/><path id="I" d="M245.86 270.17s-5.76 5.9-15.12 0-37.86-27.05-31.1-33.8 19.68-5.36 19.68-5.36l11.42 6.6 15.12 21.4z"/><path id="J" d="M216.3 233.83a181.12 181.12 0 0 0-52.65 16.56c-7.57 3.74-15.17 8.27-19.78 15.35-4 6.1-5.35 13.57-5.82 20.85a98.43 98.43 0 0 0 16.87 61.31 18 18 0 0 0 11-4.65c.72-8.6-1-17.8-1.82-26.4s-.1-17.85 5-24.85c4.32-5.83 11.18-9.14 17.88-11.9 13.77-5.68 28.46-10.23 39.76-19.94 3.9-3.35 7.45-7.56 8.22-12.64a13.93 13.93 0 0 0-5.7-13.26c-4.17-2.86-7.94-1.2-12.96-.43z"/><path id="K" d="M226.1 265.7l-.01 3.26-48.4 28.03.01-3.26 48.4-28.03z"/><path id="L" d="M177.68 293.73l-.01 3.26-57.9-33.44.01-3.26 57.9 33.44z"/><path id="M" d="M149.6 240.93l1.4-.82 28.07 52.8-1.4.83-28.07-52.8z"/><path id="N" d="M91.7 207.5l1.4-.82L151 240.1l-1.4.82-57.9-33.43z"/><path id="O" d="M106.84 323.3L92.52 357.1 62.38 378.2l.14-29.14 44.32-25.76z"/><path id="P" d="M62.52 349.07l-.14 29.14-30.33-21.12-14.13-33.77 44.6 25.75z"/><path id="Q" d="M64 254.42l3.82-5.06-.27-.47c-5.74-9.58-16.62-14.67-24.56-22.5a55.25 55.25 0 0 1-12-18.45l-4.82 1.54 3.58-4.74a81.08 81.08 0 0 1-2.33-7.7c-2.7-10.88-3.4-22.15-4.1-33.34a50.58 50.58 0 0 0-19.08 63l10.07 2.2-7.7 2.5c3.85 6.77 9.17 12.6 13.4 19.15s7.54 14.6 6.17 22.42a31.59 31.59 0 0 1-1.67 5.69l9.34 6-11.9.42c-1.27 3.36-2.2 6.73-1.73 10.27.66 4.93 4 9.08 7.5 12.6a77.11 77.11 0 0 0 23.85 16.14 10.65 10.65 0 0 0 13.63-4.74c-1.72-11.86 2.07-23.73 4.67-35.43 2.3-10.3 3.54-21.63-.4-31.2z"/><path id="R" d="M143 64.5c-2.36-1.37-5.62-1.17-9.22.9L106.84 81c-7.17 4.13-13 14.15-12.93 22.37l.1 31c0 4.08 1.45 7 3.78 8.3l7 4.1c-2.33-1.35-3.77-4.23-3.78-8.3v-31.04c0-8.22 5.76-18.24 12.92-22.38l26.9-15.55c3.6-2.08 6.87-2.27 9.23-.9z"/><path id="S" d="M346.7 149.1l-26.93-15.55c-3.6-2.08-6.87-2.27-9.22-.9l-7.05 4.1c2.36-1.37 5.62-1.18 9.22.9l26.93 15.55c7.17 4.13 12.95 14.15 12.93 22.38l-.1 30.94c0 4.1-1.45 7-3.78 8.3l7.05-4.1c2.32-1.35 3.77-4.23 3.78-8.3l.1-31c.02-8.17-5.77-18.2-12.93-22.33z"/></defs><path d="M174.12 88.72c-18.24 9.85-39.3 12.58-59.57 17s-41.22 11.17-55 26.67C49.12 144.13 44 162.1 51.48 176c5.35 10 16 16.12 22.44 25.43 12.77 18.37 6.35 44.16-5.77 63S38.9 298.66 28.7 318.57s-11.1 47.7 6.47 61.55c16.26 12.82 40.56 7.78 58.22-3s32.1-26.6 50.54-36c20.9-10.64 45.28-12.23 68.7-10.84s46.68 5.52 70.15 5.5 47.85-4.6 66.54-18.78 30.1-39.6 22.82-61.9c-4.6-14.1-15.6-25-25.3-36.18S328 194.4 328.5 179.58c.52-15.62 11.48-28.65 17.57-43 12.54-29.64 3-65.74-18.83-89.36s-54.1-35.74-86.17-38.34C230.9 8 220 8.26 211.5 14c-15.4 10.42-4.2 24.16-7.26 38.08-3.5 15.92-16.12 29.1-30.12 36.64z" fill="#e3c5eb"/><g clip-path="url(#A)"><g fill="#675bd4"><path d="M322.22 247.25c14.84 8.57 14.93 22.48.17 31.05L262 313.38c-14.75 8.58-38.76 8.58-53.6 0l-60.74-35.08c-14.86-8.57-14.93-22.47-.17-31.05l60.36-35.08c14.76-8.58 38.76-8.58 53.6 0z"/><use xlink:href="#H"/></g><use xlink:href="#H" opacity=".1"/><path d="M163.3 342.44l36.7 21.2c6.9-2.57 13.47-8.5 18.82-17.85l14.9-26c-9.2-.2-18.3-2.35-25.34-6.4l-60.72-35.1c-7.48-4.3-11.2-10-11.2-15.63l-.1 33zm159.1-64.14L290.15 297v54.94l32.14-18.67c7.33-4.26 11-9.84 11-15.42l.16-55c-.06 5.62-3.73 11.15-11.06 15.45z" opacity=".1"/></g><path d="M284.07 256.75c-2.2-13.46-25.76-14.8-27.26-28.35-14.42-4.22-28.5.4-40.1 9.95s-21.4 21.47-34.48 28.87c-8.06 4.56-17 7.2-25.77 10.23a57.67 57.67 0 0 0-5.72 49.93c1.1-.8 2.24-1.6 3.38-2.38.3 5.26.36 2 2.92 6.56 3.35 6 11.75 2 18.24-.1-1.9-12-.24-7.53 2.83-19.27 30.7-13.1 65.63-18.83 93.86-37.05 6.54-4.22 13.35-10.7 12.1-18.4z" opacity=".2"/><path d="M95.67 379.52c-1.62 4.8-6.48 7.76-11.26 9.46s-9.92 2.63-14.2 5.34c-2.5 1.57-4.8 4.4-3.92 7.2 1 3.2 5.28 3.87 8.64 3.55 8.1-.77 15.82-3.75 23.42-6.7 3.26-1.26 6.87-2.86 8.07-6.14 1.8-4.9-2.88-10.48-1-15.36-3.35.74-6.4 1.9-9.74 2.64zm61.97-36.02c.5 3.28-1.43 6.45-3.7 8.88s-5 4.5-6.66 7.38c-1 1.66-1.47 4-.1 5.36 1.56 1.57 4.23.67 6.1-.53 4.48-2.9 8.07-6.93 11.6-10.93 1.5-1.7 3.13-3.73 2.85-6-.43-3.4-4.83-5.23-5.2-8.63-1.72 1.44-3.14 3.03-4.87 4.47z" fill="#ffa93a"/><g fill="#321392"><path d="M171.77 131.14c5.36 4 8.47 10.4 13.7 14.56a21.62 21.62 0 0 0 28.6-1.41c4.2-4.07 7.3-9.6 5.95-15.28a13.39 13.39 0 0 0-7.48-8.59 25.68 25.68 0 0 0-11.48-2.07c-10.7.18-21 6-29.28 12.8z"/><path d="M224 135c-2.8-4-9.07-3.76-13.3-1.26s-7.2 6.6-11 9.68-9.32 5.1-13.55 2.63c-3.7-2.16-5.3-7.14-9.3-8.74-4.2-1.7-8.94 1.2-13.45.66-6.14-.76-9.83-8.3-8-14.2s7.72-9.84 13.78-11.1 12.34-.32 18.44.7 12.33 2.16 18.45 1.25c5.88-.87 11.44-3.6 17.38-3.78s12.8 3.64 12.73 9.58a11.18 11.18 0 0 1 6.4 5.79 16 16 0 0 1 1.35 8.72c-.92 8.62-7.13 15.6-13 21.93-2.34-1.63-2.65-5.6-2-8.38s1.82-5.6 1.23-8.4A6.28 6.28 0 0 0 224 135z"/></g><use xlink:href="#I" fill="#ffa93a"/><use xlink:href="#I" opacity=".3"/><use xlink:href="#J" fill="#005d93"/><use xlink:href="#J" fill="#2b164c"/><path d="M244.07 245.3c-2.42-5.16-6.1-10.7-11.63-12a46.75 46.75 0 0 1-2.5 4.49c-15.7 4.8-79.06 46.7-79.06 46.7h0c-32.56 20.82-54.66 57.64-57 96.3a13.35 13.35 0 0 0 14 .59c4.62-24.8 30.77-40.5 37-64.93a276.16 276.16 0 0 0 63.27-21.4c15.6-7.42 31.2-17 39.65-32-.73-5.66-1.32-12.6-3.73-17.75z" fill="#371b5f"/><path d="M211.4 265.43c-15.27-6.9-31.48-10.86-47.7-15.05h0c-7.57 3.74-15.17 8.27-19.78 15.35a36.14 36.14 0 0 0-5 13.87A238 238 0 0 1 178 304.2l46.44-28.9c-4-3.68-8.12-7.64-13.05-9.86z" opacity=".2"/><path d="M226.1 265.7l-48.4 28.03-57.9-33.44 48.4-28.02 57.9 33.43z" fill="url(#B)"/><path d="M157.82 246.48l-24.07 13.8 43.92 25.36 24.07-13.8-43.92-25.35zm23.83-2.65l-11 6.32 20.1 11.6 11-6.3-20.1-11.6z" opacity=".2"/><g fill="#a14c31"><use xlink:href="#K"/><use xlink:href="#L"/></g><g fill="#cdccfc"><use xlink:href="#K"/><use xlink:href="#L"/></g><path d="M218.05 161.64c-10.4 6.4-17.72 16.83-23.3 27.7s-9.74 22.44-15.6 33.17-13.74 20.83-24.6 26.43c-.9 3.2.87 5.7 4.1 6.52a82.69 82.69 0 0 0 51.61-60.9 28.2 28.2 0 0 0 10.21-15.1c1.54-6.08.03-12.02-2.4-17.8z" fill="url(#C)"/><path d="M232.3 158.46c-7.7-2-16.1 2.14-20.8 8.58s-6.27 14.67-6.5 22.64.8 15.93.67 23.9-1.54 16.2-6.05 22.78c18.74 4.06 36.73 17.15 46.22 33.8 8.38-9 11.66-21 13.55-33.2 1.8-11.75 3.14-23.7 2-35.53s-4.92-23.66-12.4-32.92c-4.94-6.1-9.1-8.05-16.7-10.07z" fill="url(#D)"/><path d="M261.4 201.45a68.84 68.84 0 0 0-5.75-22.11c-2.7-4.6-7.07-8.78-12.2-8-3.37 4-3.86 10.05-3.23 15.24a76.75 76.75 0 0 1-9.52 47.07 89 89 0 0 1-19.26 23.62l13.7 7.9c9.23-4.63 17.6-10.62 24.14-18.74 5.8-7.2 9.36-16 11.3-25.06.52-2.42.92-4.88 1.2-7.36a101 101 0 0 0-.37-12.57z" opacity=".2"/><path d="M191.85 262.76c-2.1 0-4.1-.7-6.18-.94s-4.4 0-5.84 1.55c-1.22 1.28-1.2 3.4-1.65 5.1a5.87 5.87 0 0 0-.12 3.34 4.09 4.09 0 0 0 2.63 2.32 11.93 11.93 0 0 0 3.58.46c4.55.13 9.17-2.56 12.56-5.6.07-1.6.3-3.52-.56-4.87-.97-1.52-2.62-1.33-4.42-1.36z" fill="#f1ac85"/><path d="M244.1 170.46c5.7-.44 10 5 12.3 10.24 5.52 12.75 5.24 27.48 1.42 40.84-2.54 8.9-6.68 17.45-13 24.24-12.8 13.83-31 20.38-49.4 24.4a5.82 5.82 0 0 0-5.36-7.35c15.35-5.45 28-17.5 37.07-31a76.74 76.74 0 0 0 12.66-46.32c-.24-5.28.66-11.27 4.3-15.04z" fill="url(#E)"/><path d="M249 173.26a9.57 9.57 0 0 0 2.21-1.82l-2.15-2.9c-4.94-6.1-9.1-8.05-16.7-10.07-7-1.85-14.54 1.43-19.4 6.85a66.55 66.55 0 0 0-14.25 17l.52.28c3.55 2.27 6.24 6.3 10.42 6.87 3.5.47 6.8-1.74 9.27-4.24s4.6-5.47 7.67-7.22c3.35-1.92 7.37-2.14 11.22-2.34s7.83-.43 11.2-2.4z" fill="#e19230"/><path d="M219 151.62q1.92 7 3.85 13.92a10 10 0 0 0 12-3.06c-1.55-4.66-2.37-9.72-3.92-14.38-3.73 1.48-8.2 2.03-11.93 3.52z" fill="#f1ac85"/><path d="M232.55 153.88l-1.62-5.78c-3.73 1.48-8.2 2-12 3.52q1.74 6.27 3.46 12.54a48.08 48.08 0 0 0 10.16-10.28z" opacity=".2"/><path d="M206.48 129.8a38.36 38.36 0 0 0 9.61 29.61c6.45-1.34 13.2-4.24 17.12-9.52a21.13 21.13 0 0 0 3.47-18.69c-2-6.27-7.76-11.33-14.3-11.93s-15.17 4-15.9 10.53z" fill="#f1ac85"/><path d="M201.7 137.4a29.89 29.89 0 0 0 20.93-6.53 12 12 0 0 0 5.65 4.71c0 1.86-.43 3.7-.45 5.56.37 0 .82-.18 1.2-.18a7.62 7.62 0 0 1 1.29-3.81c.68-1 2.27-1.33 3-.4a2.65 2.65 0 0 1 .15 2.31 16.28 16.28 0 0 1-3.73 6.69 14.52 14.52 0 0 1 1.7 6.17c.43.62.94 1 1.37 1.63 3-4 5.64-8.37 6.8-13.22a21.85 21.85 0 0 0-1.27-14.61 19.46 19.46 0 0 0-12.31-10 22.45 22.45 0 0 0-15.86 1.8 18.23 18.23 0 0 0-8.19 7.84c-1.7 3.48-2.14 8.65-.3 12.04z" fill="#321392"/><path d="M211.63 148.63a8.12 8.12 0 0 1-1.88 1.12c-.84.4-.6 2 0 2.7s.92 1 1.58.8a7.82 7.82 0 0 0 3.76-2.35c.45-.43.38-.35 1.4-1.93 1.53-2.37.23-9.34-2-5.37-1.83 3.4-.34 3.04-2.85 5.02z" fill="#e5a383"/><g fill="#002793"><ellipse cx="219.98" cy="142.72" rx="1.32" ry="2.32"/><path d="M210.86 143.43c0 1.07-.5 1.95-1.1 1.95s-1.1-.88-1.1-1.95.5-2 1.1-2 1.1.92 1.1 2z"/></g><path d="M149.6 240.93l28.07 52.8-57.9-33.43-28.07-52.8 57.9 33.43z" fill="url(#F)"/><g fill="#ff794e"><use xlink:href="#M"/><use xlink:href="#N"/></g><g fill="#cdccfc"><use xlink:href="#M"/><use xlink:href="#N"/></g><path d="M106.84 323.3l-44.32 25.76-44.6-25.75 44.3-25.76 44.6 25.75z" fill="#fff"/><path d="M62.25 305.65L31.88 323.3l30.63 17.68 30.36-17.65-30.62-17.68z" fill="#ffa93a"/><g fill="#fff"><use xlink:href="#O"/><use xlink:href="#P"/></g><use xlink:href="#O" opacity=".1"/><use xlink:href="#P" opacity=".2"/><use xlink:href="#Q" fill="#321392"/><path d="M65.44 272.37a1.49 1.49 0 0 0-1.92.85 157.39 157.39 0 0 1-13.2 26.46l-.5-7.42-.17-4.38C49.32 279 49 270 46.42 261.55a96 96 0 0 0 7.83-19.9 1.48 1.48 0 0 0-2.86-.77 93.6 93.6 0 0 1-6.33 16.81c-.45-1.13-.94-2.24-1.5-3.34-3.16-6.23-7.86-11.45-12.4-16.5l-3.67-4.13A70.06 70.06 0 0 0 34 219.87a1.48 1.48 0 1 0-2.81-1 66.43 66.43 0 0 1-5.73 12.41c-1.36-1.67-2.67-3.38-3.84-5.15A49.45 49.45 0 0 1 13.91 205h0l9.77-12a1.48 1.48 0 1 0-2.29-1.88l-7.88 9.68a50.12 50.12 0 0 1 5.68-25.92 1.49 1.49 0 0 0-2.62-1.41c-7.1 13.24-7.92 29.7-2.74 43.83a45.32 45.32 0 0 1-8.75-7.05A1.48 1.48 0 1 0 3 212.31a48.38 48.38 0 0 0 12.74 9.44 49.06 49.06 0 0 0 3.44 6.07 105.79 105.79 0 0 0 9.79 12l3.78 4.25A53.16 53.16 0 0 1 24.3 242a1.48 1.48 0 1 0-.94 2.81 56.19 56.19 0 0 0 12.17 2.61 49.7 49.7 0 0 1 5.39 8.24c3.94 7.8 5 16.67 5.48 25.58a61.83 61.83 0 0 0-12.66-16.63 1.49 1.49 0 1 0-2 2.18 58.63 58.63 0 0 1 14.46 21.05 1.49 1.49 0 0 0 .52.66l.15 3.86c.48 10.93 1.9 23.07 8.25 32.5a10.86 10.86 0 0 0 3.41-.31c-4.35-5.8-6.5-13-7.6-20.27a160.44 160.44 0 0 0 15.38-30 1.48 1.48 0 0 0-.86-1.91z" opacity=".2"/><use xlink:href="#Q" opacity=".2"/><path d="M95.18 238.87l7-4.94-.15-.7c-3.44-14.67-15.33-25.67-22.3-39a74.74 74.74 0 0 1-7.83-28.62h-6.83l6.54-4.6c-.12-3.62-.06-7.25.18-10.85 1-15.1 4.7-29.85 8.4-44.5a68.23 68.23 0 0 0-50.4 73.12l12.05 7h-11c2.17 10.28 6.6 20 9.36 30.1 2.8 10.25 3.72 21.77-1.2 31.25a42.11 42.11 0 0 1-4.47 6.63L44 265.3l-15.48-4.36c-3 3.8-5.6 7.75-6.44 12.48-1.17 6.62 1.4 13.3 4.48 19.27a104.31 104.31 0 0 0 24 30.53c5.56 4.84 14.33 4.78 19.46-.5 2.66-16 12.4-29.63 20.56-43.6 7.18-12.3 13.42-26.34 12.3-40.26z" fill="#321392"/><path d="M89.64 262.5a2 2 0 0 0-2.81.3A212.29 212.29 0 0 1 59 291.39c.7-3.3 1.53-6.58 2.4-9.74q.78-2.85 1.58-5.7c3.22-11.47 6.5-23.25 6.67-35.14a129.15 129.15 0 0 0 18.23-22.35 2 2 0 1 0-3.36-2.16 125 125 0 0 1-15 19c-.1-1.63-.3-3.26-.55-4.9-1.5-9.3-5.4-17.94-9.16-26.3l-3-6.82a94.06 94.06 0 0 0 14.06-15.11 2 2 0 1 0-3.21-2.38 90.17 90.17 0 0 1-12.46 13.59c-1.07-2.7-2-5.44-2.82-8.2a66.77 66.77 0 0 1-1.23-30.35h0l17.5-11.45a2 2 0 0 0-2.19-3.35l-14.1 9.2a67.73 67.73 0 0 1 17.94-31 2 2 0 1 0-2.78-2.87C53 129.5 45.14 150.3 46 170.57a61.06 61.06 0 0 1-8.35-12.65 2 2 0 1 0-3.59 1.77 65.23 65.23 0 0 0 12.5 17.37 67.24 67.24 0 0 0 1.92 9.21 142.21 142.21 0 0 0 7.65 19.46l3.1 7a71.82 71.82 0 0 1-10-6.12 2 2 0 0 0-2.36 3.23 76.17 76.17 0 0 0 14.56 8.35A66.41 66.41 0 0 1 65 231c1.87 11.62-.42 23.47-3.47 35.1a83.23 83.23 0 0 0-9.43-26.56 2 2 0 0 0-3.49 2 79.18 79.18 0 0 1 9.94 33 1.86 1.86 0 0 0 .4 1.06q-.7 2.52-1.4 5c-3.87 14.24-7 30.4-2.75 45.14a15 15 0 0 0 4.51 1c-3.22-9.23-3-19.32-1.46-29.17a216.54 216.54 0 0 0 32.1-32.25 2 2 0 0 0-.31-2.82z" opacity=".2"/><path d="M140.8 69.5c7.16-4.13 13-.8 13 7.4l.08 31c0 8.22-5.76 18.24-12.9 22.37l-26.93 15.55c-7.17 4.14-13 .82-13-7.4l-.05-31c0-8.22 5.76-18.24 12.92-22.38z" fill="url(#G)"/><use xlink:href="#R" fill="#ffa93a"/><use xlink:href="#R" opacity=".3"/><path d="M101.3 103.84l42.63 24.3a30 30 0 0 0 9.58-16.38l-42.8-24.4a30 30 0 0 0-9.4 16.48zm13.86-19.54l38.74 22.08-.03-10.94-29.2-16.63-9.52 5.5z" opacity=".1" fill="#fff"/><path d="M134.53 107.03l9.55-16.14.06 21.83-9.6-5.7zm-18.96.32l9.6 5.08-9.55 16.75-.06-21.83z" fill="#fff"/><path d="M144.08 90.9l-14.2 24.02-14.3-7.56 28.5-16.46z" fill="#f2f2f2"/><path d="M125.18 112.43l4.7 2.48 4.66-7.88 9.6 5.7-28.5 16.46 9.55-16.75z" fill="#e5e5e5"/><path d="M312.7 137.65c-7.16-4.13-13-.8-13 7.4l-.1 30.94c0 8.23 5.76 18.25 12.92 22.38l26.93 15.55c7.16 4.13 13 .82 13-7.4l.1-30.94c0-8.23-5.76-18.25-12.93-22.38z" fill="#675bd4"/><path d="M349.67 164.46l-45.32 25.83a26.67 26.67 0 0 0 6.65 7.11l41.44-23.62a26.83 26.83 0 0 0-2.77-9.32zm-10.03-11.26l-9.1-5.26-30.88 17.6V176a24.6 24.6 0 0 0 2.35 10l45.14-25.73a24.88 24.88 0 0 0-7.5-7.07z" opacity=".1" fill="#fff"/><use xlink:href="#S" fill="#675bd4"/><use xlink:href="#S" opacity=".3"/><path d="M337.65 183.6l-.86.34c0 .45-.1.9-.17 1.3l.64 1.4a8.9 8.9 0 0 1-1.28 2.89l-1.1-.36a6 6 0 0 1-.61.62l.16 1.35a6.28 6.28 0 0 1-2.67 1.11l-1.1-1a7.06 7.06 0 0 1-.8 0l-.37 1a11.46 11.46 0 0 1-3.49-1l-.82-1.36-.42-.23-.43-.26-.82.4a23.57 23.57 0 0 1-3.49-3l-.36-1.42-.8-.94-1.1-.28a32.23 32.23 0 0 1-2.65-4.19l.17-1.15-.6-1.32-1.1-.92a26.08 26.08 0 0 1-1.25-4.35l.65-.64-.17-1.5-.86-1.32v-.38a14.11 14.11 0 0 1 .34-3.16h1a9.34 9.34 0 0 1 .49-1.29l-.4-1.42a6.81 6.81 0 0 1 1.73-2l1.08.66a6 6 0 0 1 1.21-.55l.1-1.2a7.51 7.51 0 0 1 2.65-.1l.95 1.15a10.82 10.82 0 0 1 1.68.49l.6-.7a14.88 14.88 0 0 1 1.48.76 16.83 16.83 0 0 1 1.48.95l.6 1.4a20.76 20.76 0 0 1 1.68 1.45l.95-.06a28 28 0 0 1 2.64 3.16l.1 1.32 1.2 1.95 1.08.6a30.72 30.72 0 0 1 1.72 4l-.43.94.5 1.86 1 1.1a19.69 19.69 0 0 1 .33 3.54c-.05.15-.05.26-.06.38zm-12.87 3.5c5.4 3.13 9.82.62 9.84-5.6s-4.36-13.82-9.78-16.94-9.82-.62-9.84 5.6 4.36 13.8 9.78 16.93" fill="#fff"/><g fill="#d459d3"><circle cx="230.44" cy="72.4" r="4.68" opacity=".5"/><path d="M308.17 70.06a2.34 2.34 0 1 1-2.34-2.33 2.34 2.34 0 0 1 2.34 2.33z" opacity=".5"/><circle cx="281.29" cy="128.96" r="2.82" opacity=".5"/><circle cx="326.63" cy="238.24" r="4.92" opacity=".5"/><path d="M281.3 289.26a1.41 1.41 0 1 1-1.41-1.42 1.41 1.41 0 0 1 1.41 1.42zm-68.68 68.62a5.37 5.37 0 1 1-5.37-5.37 5.37 5.37 0 0 1 5.37 5.37zM101 289.16a3.53 3.53 0 1 1-3.53-3.52 3.53 3.53 0 0 1 3.53 3.52zm9.1-121.46a3.54 3.54 0 1 1-3.53-3.53 3.54 3.54 0 0 1 3.53 3.53zm249.54-70.5a24.67 24.67 0 0 0 7.36 12.75c-3.6-.92-6.4.68-7.4 4.23a24.74 24.74 0 0 0-7.36-12.76c3.6.93 6.4-.67 7.4-4.22zM84.62 146.17a12.35 12.35 0 0 0 3.7 6.4 2.84 2.84 0 0 0-3.72 2.12 12.51 12.51 0 0 0-3.69-6.4 2.83 2.83 0 0 0 3.71-2.12zm267.62 128.9a12.4 12.4 0 0 0 3.69 6.4 2.83 2.83 0 0 0-3.71 2.12 12.42 12.42 0 0 0-3.7-6.4 2.84 2.84 0 0 0 3.72-2.12z" opacity=".5"/><ellipse cx="232.55" cy="8.49" rx="6.03" ry="10.41" transform="matrix(.864626 -.502416 .502416 .864626 27.22 117.99)" opacity=".5"/><path d="M271.1 36a12.36 12.36 0 0 0 3.7 6.39 2.85 2.85 0 0 0-3.72 2.12 12.48 12.48 0 0 0-3.69-6.4 2.82 2.82 0 0 0 3.71-2.11z" opacity=".5"/></g></svg>