<svg xmlns="http://www.w3.org/2000/svg" xmlns:xlink="http://www.w3.org/1999/xlink" viewBox="0 0 498.81 386.73" xmlns:v="https://vecta.io/nano"><style><![CDATA[.q{fill:#ffc2b0}.r{fill:#fff}.s{fill:#d0c5df}.t{fill:#b08edf}.u{fill:#3c1461}.v{fill:#ea9c92}.w{fill:#173d7a}.x{fill:#983be9}.y{fill:#b45ef4}]]></style><defs><linearGradient id="A" x1="350.84" y1="-.92" x2="158.36" y2="459.23" xlink:href="#f"><stop offset=".24" stop-color="#f5f5f5"/><stop offset="1" stop-color="#fff"/></linearGradient><linearGradient id="B" x1="135.69" y1="132.34" x2="165.32" y2="132.34" xlink:href="#f"><stop offset="0" stop-color="#b08edf"/><stop offset="1" stop-color="#d0c5df"/></linearGradient><linearGradient id="C" x1="135.69" y1="125.67" x2="138.65" y2="125.67" xlink:href="#f"><stop offset="0" stop-color="#d0ceff"/><stop offset="1" stop-color="#ffcefc"/></linearGradient><linearGradient id="D" x1="135.68" y1="121.55" x2="194.95" y2="121.55" xlink:href="#C"/><linearGradient id="E" x1="234.35" y1="89.34" x2="402.21" y2="89.34" xlink:href="#B"/><linearGradient id="F" x1="217.29" y1="131.29" x2="398" y2="131.29" xlink:href="#C"/><linearGradient id="G" x1="105.54" y1="247.77" x2="272.71" y2="247.77" xlink:href="#B"/><linearGradient id="H" x1="105.54" y1="226.06" x2="367.09" y2="226.06" xlink:href="#C"/><linearGradient id="I" x1="173.5" y1="182.43" x2="182.81" y2="182.43" xlink:href="#f"><stop offset="0" stop-color="#8e2de2"/><stop offset="1" stop-color="#4a00e0"/></linearGradient><linearGradient id="J" x1="147.76" y1="199.46" x2="179.36" y2="199.46" xlink:href="#I"/><linearGradient id="K" x1="143.17" y1="192.06" x2="152.32" y2="192.06" xlink:href="#I"/><linearGradient id="L" x1="191.81" y1="267.55" x2="228.08" y2="267.55" xlink:href="#f"><stop offset="0" stop-color="#fa941b"/><stop offset=".1" stop-color="#faa024"/><stop offset=".36" stop-color="#fbbb38"/><stop offset=".6" stop-color="#fbcb44"/><stop offset=".78" stop-color="#fbd148"/></linearGradient><linearGradient id="M" x1="202.51" y1="272.91" x2="238.78" y2="272.91" xlink:href="#L"/><linearGradient id="N" x1="209.19" y1="228.09" x2="240.89" y2="228.09" xlink:href="#I"/><linearGradient id="O" x1="233.82" y1="220.89" x2="245.42" y2="220.89" xlink:href="#I"/><linearGradient id="P" x1="191.71" y1="260.14" x2="216.6" y2="260.14" xlink:href="#I"/><linearGradient id="Q" x1="189.98" y1="236.77" x2="192.1" y2="236.77" xlink:href="#I"/><linearGradient id="R" x1="210.92" y1="250.14" x2="213.98" y2="250.14" xlink:href="#I"/><linearGradient id="S" x1="205.43" y1="213.27" x2="218.48" y2="213.27" xlink:href="#I"/><linearGradient id="T" x1="53.87" y1="283.63" x2="83.51" y2="283.63" xlink:href="#B"/><linearGradient id="U" x1="53.87" y1="276.96" x2="56.83" y2="276.96" xlink:href="#C"/><linearGradient id="V" x1="53.87" y1="272.84" x2="113.14" y2="272.84" xlink:href="#C"/><path id="W" d="M242.23 220.3l-6.44-3.72c-.5-.3-.45-.82.15-1.16l6.38-3.7a2.26 2.26 0 0 1 2-.08l6.44 3.72c.52.3.45.82-.15 1.16l-6.38 3.7a2.26 2.26 0 0 1-2 .08z"/><path id="X" d="M272.07 237.54l-6.44-3.72c-.5-.3-.45-.82.15-1.17l6.38-3.68a2.23 2.23 0 0 1 2-.08l6.44 3.7c.52.3.45.82-.15 1.17l-6.38 3.68a2.23 2.23 0 0 1-2 .09z"/><path id="Y" d="M282 243.28l-6.44-3.72c-.52-.3-.45-.82.14-1.16l6.4-3.7a2.24 2.24 0 0 1 2-.08l6.44 3.72c.52.3.46.82-.14 1.16l-6.4 3.7a2.26 2.26 0 0 1-2 .08z"/><path id="Z" d="M227.05 200.36l-6.44-3.72c-.52-.3-.45-.82.15-1.16l6.38-3.7a2.24 2.24 0 0 1 2-.08l6.45 3.72c.5.3.45.82-.15 1.16l-6.38 3.7a2.26 2.26 0 0 1-2.01.08z"/><path id="a" d="M324 245.18l-6.44-3.72c-.52-.3-.45-.82.14-1.16l6.4-3.7a2.24 2.24 0 0 1 2-.08l6.44 3.72c.52.3.46.82-.14 1.16l-6.38 3.7a2.26 2.26 0 0 1-2.01.08z"/><path id="b" d="M242.5 175.16l-6.44-3.7c-.52-.3-.45-.82.14-1.17l2.1-1.22a2.26 2.26 0 0 1 2-.08l6.44 3.72c.52.3.45.82-.14 1.16l-2.1 1.22a2.23 2.23 0 0 1-2 .08z"/><path id="c" d="M327.08 224l-6.44-3.72c-.52-.3-.45-.82.14-1.16l2.1-1.22a2.26 2.26 0 0 1 2-.08l6.44 3.72c.52.3.45.82-.14 1.16l-2.1 1.22a2.26 2.26 0 0 1-2 .08z"/><path id="d" d="M174.82 162.9a8.89 8.89 0 1 1-8.35-9.39 8.89 8.89 0 0 1 8.35 9.39z"/><path id="e" d="M281.73 112.9l-14.43-8.33a2.47 2.47 0 0 1-1.05-2.56h0a1.2 1.2 0 0 1 1.85-.88l14.42 8.33a2.46 2.46 0 0 1 1.06 2.56h0a1.2 1.2 0 0 1-1.85.88z"/><linearGradient id="f" gradientUnits="userSpaceOnUse"/></defs><path d="M496.45 246.12c-2.5 14.93-12.53 74.7-51.67 90.8-14 5.76-21.08 1.57-58.7 3.92-24.73 1.56-41.44 4.6-72 10.17-75.83 13.84-77 24.27-122.9 30.53C147.4 387.5 100.4 394 58.86 365.9s-52.8-74-54.8-83c-2.64-11.8-10.8-48.16 7.83-83.76 15.1-28.8 40.46-43.26 57.93-53.2 29.24-16.65 42.77-13.6 72-33.66C158 101.2 166.1 91.83 177.06 80.94c10.13-10.08 65.23-65 105.68-77.5 64-19.82 139.72 51.3 162 73.58 15.26 19.05 65.46 86.88 51.7 169.1z" fill="url(#A)"/><path d="M162.37 162.4l-19.28-11.2c-1.62-.94-1.42-2.58.46-3.67l18.37-10.7a7 7 0 0 1 6.35-.26l19.27 11.2c1.62.94 1.42 2.58-.46 3.66l-18.37 10.7a7.05 7.05 0 0 1-6.34.26z" class="s"/><path d="M194.94 126.44h0v-4.9h-25.88c-2.06-1.2-5.67-1-8.06.33l.77-.32H135.7v5.23a2.36 2.36 0 0 0 1.39 2.16l24.5 14.25c2.07 1.2 5.68 1.05 8.06-.33L193 129.23c1.35-.8 2-1.83 1.94-2.8z" class="t"/><path d="M165.32 120.72a9.41 9.41 0 0 0-4.32 1.13l.77-.32H135.7v5.23a2.36 2.36 0 0 0 1.39 2.16l24.5 14.25a7.16 7.16 0 0 0 3.74.8z" fill="url(#B)"/><path d="M138.65 121.52h-3v5.23a2.36 2.36 0 0 0 1.39 2.16l1.57.9z" fill="url(#C)"/><path d="M162.1 143.42a9.17 9.17 0 0 0 6.44-.08v-6.85h-6.44z" class="s"/><path d="M161.57 138l-24.5-14.25c-2.07-1.2-1.8-3.28.58-4.66L161 105.46c2.4-1.37 6-1.52 8.06-.33l24.5 14.25c2.07 1.2 1.8 3.28-.57 4.65l-23.35 13.6c-2.38 1.37-6 1.53-8.06.37z" fill="url(#D)"/><path d="M166.32 118.84l-7.2-4.2a1.06 1.06 0 0 1 0-2 3.9 3.9 0 0 1 3.49 0l7.2 4.2a1.06 1.06 0 0 1 0 2 3.81 3.81 0 0 1-3.48 0zM176.8 125l-4.38-2.58a1.06 1.06 0 0 1 0-2 3.84 3.84 0 0 1 3.49 0l4.37 2.58a1.06 1.06 0 0 1 0 2 3.81 3.81 0 0 1-3.48 0zm-20.58-3.6l-4.37-2.58a1.06 1.06 0 0 1 0-2 3.88 3.88 0 0 1 3.48 0l4.38 2.58a1.06 1.06 0 0 1 0 2 3.84 3.84 0 0 1-3.49 0z" class="r"/><path d="M360.64 270.36L224 191.45c-3.87-2.24-10.62-2-15.1.62l-93.1 53.72c-4.46 2.58-5 6.48-1.08 8.7l47 27.13a25.15 25.15 0 0 0-10.19 3c-7.16 4.14-7.16 10.84 0 15s18.76 4.14 25.92 0c2.88-1.65 4.58-3.73 5.14-5.88l11.1 6.4a23.36 23.36 0 0 0-6.35 2.4c-7.3 4.22-7.3 11.06 0 15.28s19.15 4.2 26.45 0a12.59 12.59 0 0 0 4.2-3.74l33.44 19.3c3.87 2.23 10.62 1.95 15.1-.62l93.07-53.72c4.4-2.58 4.9-6.48 1.04-8.7z" class="s"/><path d="M397.7 108.05L255.36 25.87a5.68 5.68 0 0 0-4.82-.59h0l-.26.1h-.06l-5.15 2 4.62 2.26c0 .1 0 .17-.07.25l-23.17 105.5c-1.16 5.3 1.16 11.45 5.2 13.78l138.92 80.2-.5 5.88 5.62-2.18a7.9 7.9 0 0 0 4-5.72l23.2-105.55c1.16-5.28-1.16-11.44-5.2-13.77z" class="t"/><path d="M397.7 108.05L255.36 25.87a5.68 5.68 0 0 0-4.82-.59h0l-.26.1h-.06l-5.15 2 4.62 2.26c0 .1 0 .17-.07.25l-15.27 69.53L304 153.68l98.2-40a11 11 0 0 0-4.5-5.63z" fill="url(#E)"/><path d="M392.35 124.28l10.83-4.62c.2-4.2-1.54-8.53-4.4-10.85l-17.15 7.2z" class="t"/><path d="M365.12 234.7l-142.35-82.18c-4-2.33-6.35-8.5-5.2-13.77l23.2-105.55c1.16-5.28 5.37-7.68 9.4-5.35L392.5 110c4 2.33 6.35 8.5 5.2 13.78l-23.18 105.58c-1.16 5.28-5.37 7.64-9.4 5.35z" fill="url(#F)"/><path d="M362 226.86L228.16 149.6c-3.68-2.13-5.8-7.77-4.75-12.6l21.22-96.58c1.06-4.83 4.9-7 8.6-4.9l133.88 77.26c3.7 2.13 5.8 7.77 4.75 12.6L370.63 222c-1.06 4.8-4.9 7-8.63 4.86z" class="r"/><path d="M367.1 238.3l-19.46-2.57L222 163.2c-4-2.33-11.06-2-15.7.65l-89 51.36-11.77-1.55v6.68c-.08 1.54.8 3 2.7 4.12l142.35 82.2c4 2.32 11.06 2 15.7-.65l96.93-55.95c2.6-1.5 3.92-3.45 3.84-5.28h0z" class="t"/><path d="M272.7 192.47l-8.92-5.15h-98.1l-48.37 27.9-11.77-1.55v6.68c-.08 1.54.8 3 2.7 4.12l142.35 82.2a14.68 14.68 0 0 0 8.1 1.52z" fill="url(#G)"/><path d="M110.77 214.36l-5.23-.7v6.68c-.08 1.54.8 3 2.7 4.12l2.5 1.45zM252 307.32a18.18 18.18 0 0 0 13.35-.83v-14.9H252z" class="s"/><path d="M250.6 300l-142.35-82.2c-4-2.32-3.52-6.38 1.13-9.07l96.92-55.94c4.65-2.68 11.7-3 15.7-.65l142.35 82.18c4 2.33 3.53 6.4-1.12 9.07l-96.93 55.95c-4.65 2.66-11.7 2.97-15.7.66z" fill="url(#H)"/><g class="u"><path d="M168.8 190.6l-6.44-3.72c-.52-.3-.45-.82.14-1.17l7.6-4.4a2.24 2.24 0 0 1 2-.08l6.44 3.72c.52.3.46.82-.14 1.16l-7.6 4.4a2.26 2.26 0 0 1-2.01.09zm9.95 5.74l-6.44-3.72c-.52-.3-.46-.82.14-1.16l7.6-4.4a2.23 2.23 0 0 1 2-.09l6.44 3.72c.52.3.45.82-.14 1.17l-7.6 4.38a2.21 2.21 0 0 1-1.99.09zm9.95 5.74l-6.44-3.72c-.52-.3-.45-.82.15-1.16l7.6-4.4a2.26 2.26 0 0 1 2-.09l6.44 3.72c.5.3.45.82-.15 1.17l-7.6 4.4a2.26 2.26 0 0 1-2 .08zm13.75-4.74l-6.45-3.72c-.52-.3-.45-.82.14-1.16l6.38-3.7a2.26 2.26 0 0 1 2-.08l6.44 3.72c.52.3.46.82-.14 1.16l-6.38 3.7a2.26 2.26 0 0 1-1.99.08zm9.95 5.74l-6.4-3.72c-.5-.3-.45-.82.15-1.16l6.38-3.7a2.26 2.26 0 0 1 2-.08l6.44 3.72c.52.3.45.82-.15 1.16l-6.4 3.7a2.24 2.24 0 0 1-2.01.08zm9.94 5.74l-6.44-3.7c-.52-.3-.45-.82.15-1.17l6.38-3.68a2.23 2.23 0 0 1 2-.09l6.44 3.72c.5.3.45.82-.15 1.17l-6.38 3.68a2.26 2.26 0 0 1-2 .08zm9.96 5.75l-6.44-3.72c-.52-.3-.45-.82.14-1.17l6.38-3.68a2.26 2.26 0 0 1 2-.09l6.44 3.72c.52.3.45.82-.14 1.17l-6.38 3.68a2.26 2.26 0 0 1-2 .09z"/><use xlink:href="#W"/><path d="M252.18 226.05l-6.44-3.72c-.52-.3-.45-.82.15-1.16l6.38-3.7a2.24 2.24 0 0 1 2-.08l6.45 3.72c.5.3.45.82-.15 1.16L254.2 226a2.26 2.26 0 0 1-2.02.05zm9.95 5.75l-6.44-3.7c-.52-.3-.46-.82.14-1.17l6.38-3.68a2.23 2.23 0 0 1 2-.09l6.44 3.72c.52.3.45.82-.14 1.17l-6.38 3.68a2.23 2.23 0 0 1-2 .08z"/><use xlink:href="#X"/><use xlink:href="#Y"/><path d="M292 249l-6.44-3.72c-.52-.3-.46-.82.14-1.16l6.38-3.7a2.26 2.26 0 0 1 2-.08l6.44 3.72c.52.3.45.82-.14 1.16l-6.38 3.7a2.24 2.24 0 0 1-2 .06z"/><use xlink:href="#W" x="-25.13" y="-25.68"/><use xlink:href="#Y" x="-75" y="-54.48"/><path d="M196.9 183l-13.9-8c-.52-.3-.46-.83.14-1.17l6.38-3.68a2.23 2.23 0 0 1 2-.09l13.87 8c.52.3.45.82-.14 1.17l-6.38 3.68a2.23 2.23 0 0 1-1.97.09zm7.1-7.15l-11.26-6.5c-.52-.3-.45-.83.14-1.17l6.4-3.68a2.21 2.21 0 0 1 2-.09l11.26 6.5c.52.3.45.82-.14 1.17l-6.4 3.68a2.21 2.21 0 0 1-2 .08z"/><use xlink:href="#Z"/><path d="M237 206.1l-6.44-3.72c-.52-.3-.46-.82.14-1.17l6.38-3.68a2.23 2.23 0 0 1 2-.09l6.44 3.72c.52.3.45.82-.14 1.17L239 206a2.24 2.24 0 0 1-2 .11zm9.94 5.75l-6.44-3.72c-.5-.3-.45-.82.15-1.17l6.38-3.68a2.23 2.23 0 0 1 2-.08l6.44 3.7c.5.3.45.82-.15 1.17l-6.32 3.68a2.23 2.23 0 0 1-2.06.09zm9.96 5.75l-6.44-3.72c-.52-.3-.45-.82.14-1.16l6.4-3.7a2.24 2.24 0 0 1 2-.08l6.44 3.72c.52.3.46.82-.14 1.16l-6.38 3.7a2.26 2.26 0 0 1-2.03.1zm9.94 5.73l-6.44-3.72c-.52-.3-.46-.82.14-1.16l6.38-3.7a2.26 2.26 0 0 1 2-.08l6.44 3.72c.52.3.45.82-.14 1.16l-6.4 3.7a2.24 2.24 0 0 1-1.99.08zm9.94 5.75l-6.44-3.72c-.5-.3-.45-.82.15-1.17l6.38-3.68a2.26 2.26 0 0 1 2-.09l6.44 3.72c.5.3.45.82-.15 1.17l-6.36 3.7a2.26 2.26 0 0 1-2.02.08zm9.95 5.74l-6.44-3.72c-.52-.3-.45-.82.14-1.17l6.4-3.68a2.24 2.24 0 0 1 2-.08l6.44 3.7c.52.3.46.82-.14 1.17l-6.38 3.68a2.23 2.23 0 0 1-2.01.09zm9.95 5.74l-6.45-3.72c-.5-.3-.45-.82.15-1.16l6.38-3.7a2.26 2.26 0 0 1 2-.08l6.44 3.72c.52.3.45.82-.15 1.16l-6.38 3.7a2.24 2.24 0 0 1-1.99.08zm9.94 5.74l-6.44-3.72c-.52-.3-.45-.82.15-1.16l6.38-3.68a2.23 2.23 0 0 1 2-.09l6.44 3.72c.5.3.45.82-.15 1.16l-6.38 3.7a2.26 2.26 0 0 1-2 .08zm17.68 10.2l-14.05-8.1c-.52-.3-.45-.82.15-1.17l6.38-3.68a2.23 2.23 0 0 1 2-.08l14.05 8.1c.52.3.45.82-.15 1.16l-6.38 3.7a2.26 2.26 0 0 1-2 .08zm19.37-11.17l-11.86-6.85c-.52-.3-.45-.82.14-1.16l6.38-3.7a2.26 2.26 0 0 1 2-.08l11.86 6.85c.52.3.46.82-.14 1.16l-6.38 3.7a2.26 2.26 0 0 1-2 .08zm-99.2-46.1l-6.47-3.72c-.52-.3-.45-.82.14-1.16l6.4-3.7a2.24 2.24 0 0 1 2-.08l6.44 3.72c.52.3.46.82-.14 1.16l-6.38 3.7a2.26 2.26 0 0 1-1.98.08zm-10.2-5.9l-6.45-3.72c-.5-.3-.45-.82.15-1.16l6.38-3.68a2.23 2.23 0 0 1 2-.09l6.44 3.72c.52.3.45.82-.15 1.17l-6.38 3.68a2.24 2.24 0 0 1-1.99.08zm-10.2-5.88l-6.44-3.72c-.52-.3-.45-.82.15-1.17l6.38-3.68a2.24 2.24 0 0 1 2-.08l6.45 3.72c.5.3.45.82-.15 1.16l-6.38 3.68a2.23 2.23 0 0 1-2.01.09zm-10.18-5.9l-6.44-3.72c-.52-.3-.46-.82.14-1.16l6.4-3.7a2.26 2.26 0 0 1 2-.08l6.44 3.72c.52.3.45.82-.14 1.16l-6.38 3.7a2.26 2.26 0 0 1-2.03.09zM254.42 205l-6.42-3.74c-.5-.3-.45-.82.15-1.16l6.38-3.7a2.26 2.26 0 0 1 2-.08l6.44 3.72c.52.3.45.82-.15 1.16l-6.38 3.7a2.24 2.24 0 0 1-2.02.1zm9.94 5.72l-6.44-3.72c-.52-.3-.45-.82.15-1.17l6.38-3.68a2.23 2.23 0 0 1 2-.09l6.44 3.72c.5.3.45.82-.15 1.17l-6.38 3.68a2.23 2.23 0 0 1-2 .09zm9.94 5.75l-6.44-3.72c-.52-.3-.45-.82.14-1.17l6.38-3.68a2.23 2.23 0 0 1 2-.08l6.44 3.7c.52.3.45.82-.14 1.17l-6.38 3.68a2.23 2.23 0 0 1-2 .09z"/><use xlink:href="#W" x="42.02" y="1.9"/><use xlink:href="#Z" x="67.15" y="27.64"/><path d="M304.15 233.7l-6.44-3.7c-.52-.3-.46-.82.14-1.17l6.38-3.68a2.23 2.23 0 0 1 2-.09l6.44 3.72c.52.3.45.82-.14 1.17l-6.38 3.68a2.23 2.23 0 0 1-2 .06z"/><use xlink:href="#X" x="42.03" y="1.9"/><use xlink:href="#a"/><path d="M334 250.92l-6.44-3.72c-.52-.3-.46-.82.14-1.16l6.38-3.7a2.26 2.26 0 0 1 2-.08l6.44 3.72c.52.3.45.82-.14 1.16l-6.38 3.7a2.24 2.24 0 0 1-2 .08zM239.23 185l-6.44-3.72c-.52-.3-.45-.82.15-1.17l6.38-3.68a2.26 2.26 0 0 1 2-.09l6.44 3.72c.5.3.45.82-.15 1.17l-6.36 3.77a2.26 2.26 0 0 1-2.02 0z"/><use xlink:href="#W" x="-12.9" y="-40.98"/><path d="M219.44 173.6l-6.44-3.7c-.52-.3-.45-.82.14-1.17l6.38-3.68a2.23 2.23 0 0 1 2-.08l6.44 3.7c.52.3.45.82-.14 1.17l-6.38 3.68a2.23 2.23 0 0 1-2 .09zm-9.9-5.7l-6.44-3.72c-.52-.3-.45-.82.15-1.16l6.38-3.68a2.21 2.21 0 0 1 2-.09l6.45 3.72c.5.3.45.82-.15 1.17l-6.38 3.68a2.26 2.26 0 0 1-2.01.08zm10.18-5.9l-6.44-3.72c-.52-.3-.45-.82.14-1.17l2.1-1.2a2.23 2.23 0 0 1 2-.09l6.44 3.72c.52.3.45.82-.14 1.17l-2.1 1.2a2.23 2.23 0 0 1-2 .09zm12.9 7.47l-6.44-3.7c-.5-.3-.45-.82.15-1.17l2.1-1.22a2.24 2.24 0 0 1 2-.08l6.45 3.72c.5.3.45.82-.15 1.16l-2.1 1.22a2.23 2.23 0 0 1-2.01.08z"/><use xlink:href="#b"/><path d="M252.34 180.85l-6.44-3.7c-.5-.3-.45-.82.15-1.17l2.1-1.22a2.26 2.26 0 0 1 2-.08l6.44 3.72c.5.3.45.82-.15 1.16l-2.1 1.22a2.23 2.23 0 0 1-2 .08z"/><use xlink:href="#b" x="19.7" y="11.38"/><path d="M317.22 218.3l-6.44-3.72c-.5-.3-.45-.82.15-1.16l2.1-1.22a2.24 2.24 0 0 1 2-.08l6.45 3.72c.5.3.45.82-.15 1.16l-2.1 1.22a2.26 2.26 0 0 1-2.01.08z"/><use xlink:href="#c"/><path d="M336.93 229.7l-6.44-3.7c-.5-.3-.45-.82.15-1.16l2.1-1.22a2.26 2.26 0 0 1 2-.08l6.44 3.72c.5.3.45.82-.15 1.16l-2.04 1.2a2.26 2.26 0 0 1-2.07.08z"/><use xlink:href="#c" x="19.72" y="11.38"/><path d="M249.18 190.78l-6.44-3.72c-.52-.3-.45-.82.14-1.17l6.38-3.68a2.26 2.26 0 0 1 2-.08l6.44 3.7c.52.3.45.82-.14 1.17l-6.38 3.68a2.23 2.23 0 0 1-2 .09z"/><use xlink:href="#W" x="16.89" y="-23.78"/><use xlink:href="#Z" x="42.02" y="1.9"/><path d="M279 208l-6.44-3.72c-.52-.3-.46-.82.14-1.17l6.38-3.68a2.26 2.26 0 0 1 2-.09l6.44 3.72c.52.3.45.82-.14 1.17l-6.38 3.7a2.24 2.24 0 0 1-2 .08zm10 5.75l-6.48-3.75c-.5-.3-.45-.82.15-1.17l6.38-3.68a2.26 2.26 0 0 1 2-.08l6.44 3.7c.5.3.45.82-.15 1.17l-6.34 3.7a2.23 2.23 0 0 1-2 .09z"/><use xlink:href="#a" x="-25.1" y="-25.68"/><path d="M308.86 225.23l-6.44-3.72c-.52-.3-.46-.82.14-1.16l6.38-3.68a2.23 2.23 0 0 1 2-.09l6.44 3.72c.52.3.45.82-.14 1.16l-6.4 3.7a2.24 2.24 0 0 1-1.99.08zm9.94 5.77l-6.44-3.72c-.5-.3-.45-.82.15-1.17l6.38-3.68a2.26 2.26 0 0 1 2-.09l6.44 3.72c.5.3.45.82-.15 1.17l-6.38 3.68a2.26 2.26 0 0 1-2 .09zm9.95 5.72L322.3 233c-.52-.3-.45-.82.14-1.17l6.4-3.68a2.24 2.24 0 0 1 2-.08l6.44 3.72c.52.3.46.82-.14 1.16l-6.38 3.68a2.23 2.23 0 0 1-2.01.09zM192.3 191.5l-19-11c-.5-.3-.45-.82.15-1.17l6.38-3.68a2.23 2.23 0 0 1 2-.09l19 11c.5.3.45.82-.15 1.17l-6.38 3.68a2.23 2.23 0 0 1-2 .09zM314.5 262l-19-11c-.52-.3-.45-.82.14-1.16l6.38-3.7a2.26 2.26 0 0 1 2-.08l19 11c.52.3.45.82-.14 1.17L316.5 262a2.24 2.24 0 0 1-2.01 0zm-39.77-10.25L268.3 248c-.52-.3-.45-.82.14-1.17l7.6-4.4a2.24 2.24 0 0 1 2-.08l6.44 3.72c.52.3.46.82-.14 1.16l-7.6 4.4a2.23 2.23 0 0 1-2.01.12zm-72.23-41.7l-10.3-5.94c-.52-.3-.45-.82.14-1.17l7.6-4.4a2.24 2.24 0 0 1 2-.08l10.3 5.94c.52.3.46.82-.14 1.17l-7.6 4.4a2.26 2.26 0 0 1-2.01.08zm62.65 36.17l-10.3-5.95c-.52-.3-.46-.82.14-1.16l7.6-4.4a2.26 2.26 0 0 1 2-.08l10.3 5.94c.52.3.45.82-.14 1.17l-7.6 4.4a2.24 2.24 0 0 1-1.99.08zm-48.3-27.88l-10.3-6c-.52-.3-.45-.82.14-1.16l7.6-4.4a2.21 2.21 0 0 1 2-.09l10.3 5.95c.52.3.46.82-.14 1.16l-7.6 4.4a2.23 2.23 0 0 1-2.01.14z"/><path d="M216.38 206.8l44.8 25.86a.61.61 0 0 1 0 1.16l-7.76 4.48a2.22 2.22 0 0 1-2 0l-44.78-25.86zm86.15 55.37l7.17 4.14c.43.24.37.67-.12.95l-3.1 1.8a1.85 1.85 0 0 1-1.65.07l-7.17-4.13c-.43-.25-.37-.68.1-1l3.1-1.8a1.81 1.81 0 0 1 1.66-.04zm-10.03-5.8l7.17 4.14c.43.24.37.67-.1 1l-3.1 1.8a1.87 1.87 0 0 1-1.66.07l-7.17-4.14c-.43-.25-.37-.68.12-1l3.1-1.8a1.82 1.82 0 0 1 1.65-.07zm-9.95-5.75l7.18 4.15c.42.24.37.67-.12.95l-3.1 1.8a1.82 1.82 0 0 1-1.65.06l-7.18-4.14c-.42-.24-.37-.67.12-.95l3.1-1.8a1.85 1.85 0 0 1 1.65-.07zM298 253.2l7.18 4.14c.42.24.37.67-.12.95l-3.1 1.8a1.87 1.87 0 0 1-1.66.07l-7.2-4.16c-.42-.24-.37-.67.12-.95l3.1-1.8a1.82 1.82 0 0 1 1.66-.04zm-143.2-91.7s.48 9.86 1.23 16.5 16.7-5.1 16.7-5.1v-7.55z"/></g><path d="M163.3 284.15c.24.6 4.38 5.64 8.5 6.9a9.58 9.58 0 0 0 3.8.53 1.27 1.27 0 0 0 1-1.67 15.74 15.74 0 0 0-7.94-8.74c-7-3.48-5.37 3-5.37 3zm-1.38 1.95a34.06 34.06 0 0 1 2 6.71c.3 1.86-.73 4.28-1.57 5.9a1.72 1.72 0 0 1-2.68.46 10 10 0 0 1-3.36-6.41c-.48-5.16 0-6.05 0-6.05z" class="w"/><path d="M152 223.8a97.88 97.88 0 0 0 0 13.69c.54 7.2 2.47 40.82 2.83 48.9 0 0-.18 2.45 4.56 1.9s4.36-3.26 4.36-3.26 6.66-.1 6.87-4 6.82-46.87 6.82-62.3z" fill="#f99320"/><path d="M179.86 190.2l3.27 5.06 11.2 13.54a2.53 2.53 0 0 1-1.78 1.59c-1.1.25-10.52-8.74-14.6-12.7a3.14 3.14 0 0 1-.43-4z" class="q"/><path d="M173.5 169.46s5.18-.14 7 7.35 3.2 16.87 1.64 17.65c-4.7 2.34-7.7-.4-7.7-.4z" fill="url(#I)"/><path d="M175.05 169.77a4.27 4.27 0 0 0-2.8-.15c-4.4 1.27-21 6.14-23.75 8.48-3.16 2.7 4.74 17.88 4.63 22.86s-.68 10.84-1.1 16.26-1 8.37 3.4 10.67 12 2.4 17.64-1.9 4.63-7.26 4.4-10.4-2.16-16.66-2-20.5a14.49 14.49 0 0 0 3.46-4c1.48-2.52-1.13-7.14-2.2-10.15s.6-6.45.28-8.9a2.81 2.81 0 0 0-1.92-2.27z" fill="url(#J)"/><path d="M169.74 175c.35 2.73-2.15 5.3-5.6 5.75s-6.52-1.42-6.87-4.15 2.16-5.3 5.6-5.75 6.52 1.37 6.87 4.15z" class="r"/><g class="q"><path d="M168 175.18c.25 1.95-1.55 3.8-4 4.1s-4.66-1-4.9-3 1.54-3.8 4-4.1 4.62 1.04 4.9 3z"/><path d="M165.52 168.76s-3-2.46-3.6-1.2-1.07 6.6-1.07 6.6l5.95 1.6-.9-5.43s1.2-1-.4-1.56z"/><use xlink:href="#d"/></g><path d="M161.52 169.1l-.15.88c.6 3.1 5.22 4.45 5.22 4.45l-.68-4.1s.56-.47.4-.95c-1.83-.58-4.13-1.1-4.8-.27z" class="v"/><g class="q"><use xlink:href="#d"/><path d="M144.06 199.98l1 23.77 3.48.36 2.26-21.4-6.73-2.73z"/></g><path d="M155.48 198l-3.42-16.3-1 11.15c1.12 3.3 2.08 6.35 2 8.1l-.55 9.4s4.12-7.3 2.97-12.38z" fill="#8a2ae3"/><path d="M149.17 177.6s-2.78 1.06-4.36 9.6-2.74 17.1.06 18.2 5.15 1.93 6-.35 1.34-13.3 1.44-17.24.23-9.42-3.14-10.2z" fill="url(#K)"/><path d="M193.5 207.8a7.59 7.59 0 0 1 2.59 1.74 17 17 0 0 1 1.77 2.38c.87 1.3 1.6 4.08 1.07 4.43s-3.55-4.67-4-3.5 0 2.25-.62 2.27-2.8-5.05-4.5-6.62 3.7-.7 3.7-.7z" class="q"/><path d="M163.7 285.05a13.16 13.16 0 0 0 1.91-.2h0l1.3-52.27z" fill="#d8892b"/><path d="M158.68 256.82l-1.85-2.42-19.45-11.26a2.69 2.69 0 0 1-1.12-2.16v-15.92l-1.12-1.46 1-.6a.7.7 0 0 1 .76 0l22 12.77a2.68 2.68 0 0 1 1.13 2.16v17.34a1 1 0 0 1-.41.92h0z" class="x"/><g fill="#d29fff"><path d="M145.23 247.7l-1.38-.8-7.6-13.18v-8.65l-1.12-1.46 1-.6a.7.7 0 0 1 .76 0l22 12.77a2.23 2.23 0 0 1 .83 1z"/><path d="M135.65 224.24l-.5-.64 1-.6a.7.7 0 0 1 .76 0l.4.23z"/></g><path d="M159.2 235.94a2.79 2.79 0 0 1 .92 1.85L158 239l-1-1.8z" class="x"/><path d="M158 236.4l-22-12.76c-.63-.36-1.13 0-1.13.85v17.35a2.69 2.69 0 0 0 1.03 2.16l22 12.76c.62.36 1.13 0 1.13-.85v-17.35a2.69 2.69 0 0 0-1.03-2.16z" class="y"/><path d="M145.08 223.56a53.6 53.6 0 0 0-.78 7.32c.14 1.78 1.1 4.7 1.8 4.65s0-7.15 1.3-6.44 1.4 1.9 2 1.5-1-6.5-.58-9.1-3.74 2.1-3.74 2.1z" class="q"/><path d="M169.36 163.14c4.46 1.6 5.33.62 5.37.57 0-.27.07-.54.1-.82a8.64 8.64 0 0 0-.3-2.84L163 158.5a12.54 12.54 0 0 0 6.36 4.65z" class="v"/><path d="M175.14 154c-1-.9-4.84-5.35-11.63-4.3-4.25.65-7.82 3.55-8.62 10.15A15.21 15.21 0 0 0 159 172a4.37 4.37 0 0 0 .48-.25c1.7-1.12 1.9-1.73 1.9-1.74l.37-3.37a.93.93 0 0 0-.84-.93 1.73 1.73 0 0 1-1.25-.76c-1-1.28-.52-3.26 1.43-3.34a1.48 1.48 0 0 0 1.55-1.11.81.81 0 0 1 1.05-.54c2.2.8 7.68 2.53 11.2 1.54 4.5-1.3 1.3-6.56.26-7.5z" class="u"/><path d="M170.08 167.16l2.7-.75a6.52 6.52 0 0 1-3.19 2.59c-1.9.52-2.2-1.08-2.2-1.08z" class="r"/><path d="M149.7 230.4l-2.32-1.33.87 1.42 1.18.43.27-.52z" fill="#d29fff"/><path d="M212 303.5s-2.92-1.47-4.72.72-4.36 7.38-4.44 10.88 2.77 3.26 4.47 2.43 6.64-8 6.94-9.4a4.94 4.94 0 0 0-.83-3.68c-.42-.37-1.42-.94-1.42-.94z" class="w"/><path d="M212.64 302.8l.14 3a1.72 1.72 0 0 1-.86 1.57 3.36 3.36 0 0 1-2.25.35c-2.2-.35-2.4-1-2.55-4s5.52-.92 5.52-.92z" fill="#e8a200"/><path d="M201.3 297.67s-2.92-1.47-4.7.72-4.36 7.38-4.44 10.88 2.77 3.26 4.46 2.43 6.64-8 6.94-9.4a4.85 4.85 0 0 0-.83-3.68c-.47-.37-1.42-.94-1.42-.94z" class="w"/><path d="M202,297l.14,3a1.74,1.74,0,0,1-.86,1.57,3.36,3.36,0,0,1-2.25.35c-2.2-.35-2.4-1-2.56-4S202,297,202,297Z" fill="#e8a200"/><path d="M228 241.4c-.87-14.07-15.24 2.07-15.24 2.07L203 253.1l-8.86 9.73a8.71 8.71 0 0 0-2.2 7l3.58 27.3a2.68 2.68 0 0 0 2.69 2.33 8.7 8.7 0 0 0 1.33-.12 3.33 3.33 0 0 0 3-3.53l-.66-25.52 18.6-11.22s8.4-3.6 7.52-17.67z" fill="url(#L)"/><path d="M238.7 246.76c-.86-14.07-15.23 2.07-15.23 2.07l-9.84 9.64-8.86 9.73a8.75 8.75 0 0 0-2.2 7l3.6 27.3a2.67 2.67 0 0 0 2.68 2.33 8.49 8.49 0 0 0 1.33-.12 3.32 3.32 0 0 0 3-3.53l-.65-25.52 18.6-11.22s8.45-3.6 7.58-17.67z" fill="url(#M)"/><path d="M230.2 201.6c10.9 4.5 10.68 11 10.68 11s-2.14 23.62-1.4 39.4c.3 6.6-35 7.1-29.75-10.5 6.2-20.73 3.88-37.52 6.8-40.05s10.87-1 13.7.16z" fill="url(#N)"/><path d="M233.72 207.3c-.57 2.2-3.47 3.37-6.48 2.6s-5-3.2-4.4-5.4 3.47-3.38 6.48-2.6 4.98 3.2 4.4 5.4z" class="q"/><path d="M229.08 210.67a7.57 7.57 0 0 1-2-.26c-3.28-.84-5.42-3.55-4.78-6a4.13 4.13 0 0 1 2.7-2.81 7.23 7.23 0 0 1 4.48-.21c3.27.85 5.42 3.56 4.78 6.05h0c-.55 1.98-2.68 3.23-5.18 3.23zm-1.64-8.5a5.75 5.75 0 0 0-2.09.38 3.15 3.15 0 0 0-2 2.07c-.5 1.93 1.3 4.07 4 4.78s5.34-.3 5.84-2.23-1.3-4.07-4-4.78a7 7 0 0 0-1.75-.22z" class="r"/><path d="M225.84 201.1a25.57 25.57 0 0 1-.09 3.89c-.06 1.1 3.74 2.1 4.72 1.12s.6-2 .83-5.7-5.46.7-5.46.7z" class="q"/><path d="M231.3 200.4s-.94 3.43-5.55 4.74l.07-3.1z" class="v"/><path d="M234.22 191.7a8.39 8.39 0 1 1-10.22-6 8.39 8.39 0 0 1 10.22 6z" class="q"/><path d="M228 194.12s-4.62 2-7.82 2-2.5-2.66-2.5-2.66l9.5-1.37z" class="v"/><path d="M219.26 194.64s4-1.7 7.55-1a3.68 3.68 0 0 1 2.13 1.27 1.35 1.35 0 0 0 .65.47c.62.14 1.65-2.46 2.86-2.52s2 .8 1 2.4-.66 3.38-.2 3.64 5.33-3.47 1-12-15.2-3.92-16.9-2.2c0 0-1.8 1.56-3.24.18.07.02-1.56 12.22 5.15 9.76z" fill="#370b96"/><path d="M234.78 229.8v6.38a2.61 2.61 0 0 1-.85 1.92l-13.1 11.95 1.5 2.27 17.23-11.84A3.51 3.51 0 0 0 241 238l1.24-11.84z" class="q"/><path d="M240 209.36s4 6 5.45 21.72c0 0-6.8 2.2-10.64.95s5.2-22.67 5.2-22.67z" fill="url(#O)"/><path d="M234.05,216.92a111.23,111.23,0,0,0-1.65,12.25,2.52,2.52,0,0,0,1.65,2.42h0Z" fill="#6614cf"/><path d="M230.65 258.35l-2.9-.38-18.7-10.8a2.62 2.62 0 0 0-2.34.1l-13.25 7.65-1.75-.23v1.74a.7.7 0 0 0 .4.62l21.2 12.23a2.59 2.59 0 0 0 2.34-.1l14.43-8.32a1 1 0 0 0 .57-.79h0z" class="u"/><path d="M216.6 251.53l-1.33-.77h-14.6l-7.2 4.16-1.75-.23v1.74a.7.7 0 0 0 .4.62l21.2 12.23a2.19 2.19 0 0 0 1.2.23z" fill="url(#P)"/><path d="M192.5 254.8l-.78-.1v1.74a.7.7 0 0 0 .4.62l.38.2z" fill="#5793ce"/><path d="M213.52,269.38a2.71,2.71,0,0,0,2-.12v-3h-2Z" class="u"/><path d="M213.3 267.54l-21.2-12.24c-.6-.34-.52-1 .17-1.35l14.43-8.33a2.59 2.59 0 0 1 2.34-.09l21.2 12.23c.6.35.53.95-.16 1.35l-14.43 8.33a2.59 2.59 0 0 1-2.34.1z" class="r"/><path d="M213 265.68l-17.62-10.17c-.5-.3-.44-.8.14-1.12l7.68-4.4a2.15 2.15 0 0 1 1.94-.08l17.63 10.17c.5.3.43.8-.14 1.13l-7.74 4.34a2.12 2.12 0 0 1-1.89.12z" fill="#d4ecff"/><g class="q"><path d="M207.53 245.22l-.22 1.46a11 11 0 0 0 .1 3.75l.26 1.3a1.83 1.83 0 0 0 1.45 1.43h0a1 1 0 0 0 1.17-.88l.35-3.12s.8 1 1.2 1-.43-3.14-1.3-4.9-3-.02-3-.02z"/><path d="M214.72 222l-2.28 4.5a8.9 8.9 0 0 0-.93 3.42l-1 15.4-3-.07-1.36-17.3a6.61 6.61 0 0 1 .08-1.6l1.55-8.76z"/></g><g class="u"><path d="M212.6 268.7l-1.78-2.32-18.7-10.82a2.6 2.6 0 0 1-1.12-2.07v-15.3l-1-1.4 1-.6a.69.69 0 0 1 .74 0l21.17 12.26a2.58 2.58 0 0 1 1.09 2.07v16.67a.92.92 0 0 1-.4.88h0z"/><path d="M199.67 259.94l-1.33-.77-7.3-12.66v-8.3l-1.05-1.4 1-.6a.69.69 0 0 1 .74 0l21.17 12.26a2.11 2.11 0 0 1 .8.93z"/></g><path d="M190.46 237.42l-.48-.62 1-.6a.69.69 0 0 1 .74 0l.37.2z" fill="url(#Q)"/><path d="M213.1 248.65a2.74 2.74 0 0 1 .88 1.79l-2.07 1.2-1-1.72z" fill="url(#R)"/><path d="M211.9 249.1l-21.18-12.26c-.6-.35-1.1 0-1.1.82v16.66a2.62 2.62 0 0 0 1.09 2.08l21.17 12.26c.6.35 1.1 0 1.1-.82v-16.66a2.61 2.61 0 0 0-1.08-2.08z" class="r"/><path d="M222.3 252.33l-.3.67a4.66 4.66 0 0 1-1.77 2l-2.1 1.3a2.12 2.12 0 0 1-2.15.05l-.07-.05a1.26 1.26 0 0 1-.18-1.94l2.2-2.26s-1.24.94-1.58.56 1.2-1.64 2.3-1.68a4.46 4.46 0 0 0 2.19-.92z" class="q"/><path d="M216.74 201.35s-8.06 8.77-11.3 16.82a16.44 16.44 0 0 0 9.5 6.91c6.74 1.92 1.8-23.73 1.8-23.73z" fill="url(#S)"/><path d="M213.4 224.56l1.3-12.62-3.08 11.82a16 16 0 0 0 1.77.8z" fill="#6614cf"/><path d="M222.77 199.58l-2.16-.6a5.18 5.18 0 0 0 2.54 2c1.5.4 1.74-.86 1.74-.86z" class="r"/><path d="M80.5 313.85L61 302.5c-1.65-.95-1.45-2.62.46-3.72l18.6-10.84a7.15 7.15 0 0 1 6.43-.27L106 299c1.65 1 1.44 2.6-.46 3.7l-18.6 10.87a7.15 7.15 0 0 1-6.43.27z" class="s"/><path d="M113.13 277.73h0v-4.9H87.25c-2.07-1.2-5.68-1.05-8.06.33l.77-.32H53.88V278a2.33 2.33 0 0 0 1.38 2.16l24.5 14.25c2.06 1.2 5.67 1 8.06-.33l23.34-13.6c1.38-.76 2.04-1.8 1.97-2.75z" class="t"/><path d="M83.5 272a9.29 9.29 0 0 0-4.32 1.13l.77-.32H53.88v5.2a2.33 2.33 0 0 0 1.38 2.16l24.5 14.25a7.36 7.36 0 0 0 3.74.8z" fill="url(#T)"/><path d="M56.83 272.8h-2.95v5.2a2.33 2.33 0 0 0 1.38 2.16l1.57.9z" fill="url(#U)"/><path d="M80.27,294.7a9.14,9.14,0,0,0,6.45-.07v-6.85H80.27Z" class="s"/><path d="M79.76 289.26L55.26 275c-2.06-1.2-1.8-3.28.58-4.66l23.35-13.6c2.38-1.38 6-1.53 8.06-.33l24.5 14.25c2.07 1.2 1.8 3.27-.58 4.65l-23.34 13.6c-2.4 1.4-6 1.54-8.06.35z" fill="url(#V)"/><path d="M84.5 270.13l-7.2-4.2a1.06 1.06 0 0 1 0-2 3.84 3.84 0 0 1 3.49 0l7.2 4.2a1.06 1.06 0 0 1 0 2 3.84 3.84 0 0 1-3.49 0zm10.5 6.12l-4.37-2.58a1.06 1.06 0 0 1 0-2 3.81 3.81 0 0 1 3.48 0l4.38 2.58a1.06 1.06 0 0 1 0 2 3.84 3.84 0 0 1-3.49 0zm-20.6-3.55l-4.4-2.58a1.06 1.06 0 0 1 0-2 3.9 3.9 0 0 1 3.49 0l4.37 2.58a1.06 1.06 0 0 1 0 2 3.81 3.81 0 0 1-3.45 0z" class="r"/><g class="s"><path d="M284.93 82l-8.65-5a2.48 2.48 0 0 1-1-2.56h0a1.21 1.21 0 0 1 1.85-.89l8.65 5a2.47 2.47 0 0 1 1 2.56h0a1.2 1.2 0 0 1-1.85.89zm20.6 11.93l-12.75-7.36a2.46 2.46 0 0 1-1.06-2.57h0a1.2 1.2 0 0 1 1.85-.88l12.75 7.36a2.48 2.48 0 0 1 1.06 2.56h0a1.2 1.2 0 0 1-1.85.89zm-35.67 28.47l-8.65-5a2.48 2.48 0 0 1-1-2.56h0A1.21 1.21 0 0 1 262 114l8.64 5a2.46 2.46 0 0 1 1.06 2.56h0a1.2 1.2 0 0 1-1.84.84zm18.36 10.6l-12.75-7.36a2.48 2.48 0 0 1-1.06-2.56h0a1.2 1.2 0 0 1 1.85-.88l12.74 7.36a2.46 2.46 0 0 1 1.06 2.56h0a1.2 1.2 0 0 1-1.84.88zm-28.8-57.5L254 72.37a2.47 2.47 0 0 1-1-2.56h0a1.2 1.2 0 0 1 1.85-.88l5.4 3.12a2.47 2.47 0 0 1 1 2.56h0a1.2 1.2 0 0 1-1.83.88zm16.65 17.78l-16.5-9.53a2.46 2.46 0 0 1-1.06-2.56h0a1.2 1.2 0 0 1 1.85-.88l16.5 9.52a2.49 2.49 0 0 1 1.05 2.57h0a1.2 1.2 0 0 1-1.85.88zm-14.43 8.02l-5.4-3.12a2.46 2.46 0 0 1-1.06-2.56h0a1.2 1.2 0 0 1 1.85-.88l5.4 3.12a2.48 2.48 0 0 1 1.06 2.56h0a1.2 1.2 0 0 1-1.85.88zM291 151l-14.43-8.33a2.47 2.47 0 0 1-1.05-2.56h0a1.2 1.2 0 0 1 1.85-.88l14.42 8.32a2.49 2.49 0 0 1 1.06 2.57h0a1.2 1.2 0 0 1-1.85.88zm-34.63-36.4l-3.46-2a2.46 2.46 0 0 1-1.06-2.56h0a1.2 1.2 0 0 1 1.85-.88l3.47 2a2.47 2.47 0 0 1 1.05 2.56h0a1.2 1.2 0 0 1-1.85.88zm-2.5 14.93l-4.3-2.53a2.47 2.47 0 0 1-1-2.56h0a1.2 1.2 0 0 1 1.85-.88l4.3 2.48a2.47 2.47 0 0 1 1.06 2.57h0a1.2 1.2 0 0 1-1.9.92zm16.75 9.67l-11.35-6.55a2.48 2.48 0 0 1-1.06-2.56h0a1.2 1.2 0 0 1 1.85-.89l11.35 6.56a2.46 2.46 0 0 1 1.06 2.56h0a1.2 1.2 0 0 1-1.85.88zm-14.56-.2l-8.16-4.7a2.48 2.48 0 0 1-1.06-2.56h0a1.21 1.21 0 0 1 1.85-.89l8.17 4.72a2.47 2.47 0 0 1 1.05 2.56h0a1.2 1.2 0 0 1-1.85.88zm47.3 19.14l-5.25-3a2.46 2.46 0 0 1-1.05-2.56h0a1.2 1.2 0 0 1 1.85-.88l5.24 3a2.48 2.48 0 0 1 1.06 2.56h0a1.2 1.2 0 0 1-1.85.88z"/><use xlink:href="#e"/><path d="M283.05 105.48L257.9 91a2.49 2.49 0 0 1-1-2.57h0a1.2 1.2 0 0 1 1.85-.88l25.1 14.45a2.48 2.48 0 0 1 1.06 2.56h0a1.2 1.2 0 0 1-1.85.92zM269 113.73l-14.43-8.33a2.48 2.48 0 0 1-1-2.56h0a1.2 1.2 0 0 1 1.85-.89l14.42 8.33a2.48 2.48 0 0 1 1.06 2.56h0a1.21 1.21 0 0 1-1.9.89zm23.67 5.5l-5.24-3a2.47 2.47 0 0 1-1.05-2.56h0a1.2 1.2 0 0 1 1.85-.88l5.24 3a2.48 2.48 0 0 1 1 2.56h0a1.2 1.2 0 0 1-1.8.88zm51.73-2.84l-31-17.92a2.47 2.47 0 0 1-1.05-2.56h0a1.2 1.2 0 0 1 1.85-.88l31 17.92a2.47 2.47 0 0 1 1.05 2.56h0a1.2 1.2 0 0 1-1.85.88zm-75.82 13.46l-17.34-10a2.48 2.48 0 0 1-1.06-2.56h0a1.21 1.21 0 0 1 1.85-.89l17.35 10a2.47 2.47 0 0 1 1.05 2.56h0a1.2 1.2 0 0 1-1.85.89zm-.14-57.32l-12.75-7.36a2.48 2.48 0 0 1-1.06-2.56h0a1.2 1.2 0 0 1 1.85-.89l12.75 7.36a2.48 2.48 0 0 1 1.06 2.56h0a1.21 1.21 0 0 1-1.85.89zm-14.64 73.32L239 137.3a2.47 2.47 0 0 1-1.05-2.56h0a1.2 1.2 0 0 1 1.85-.88l14.76 8.52a2.47 2.47 0 0 1 1.06 2.56h0a1.21 1.21 0 0 1-1.82.89zm99.13 55.3l-8.65-5a2.47 2.47 0 0 1-1-2.56h0a1.2 1.2 0 0 1 1.85-.88l8.64 5a2.48 2.48 0 0 1 1.06 2.56h0a1.2 1.2 0 0 1-1.9.88zm6.2-29.14l-16.5-9.53a2.46 2.46 0 0 1-1.06-2.56h0a1.2 1.2 0 0 1 1.85-.88l16.5 9.53a2.46 2.46 0 0 1 1.06 2.56h0a1.2 1.2 0 0 1-1.85.88zm-14.44 8l-5.4-3.12a2.47 2.47 0 0 1-1.05-2.56h0a1.2 1.2 0 0 1 1.85-.88l5.4 3.12a2.48 2.48 0 0 1 1.06 2.56h0a1.2 1.2 0 0 1-1.85.88zm-5.26 13.36l-3.47-2a2.47 2.47 0 0 1-1.05-2.56h0a1.2 1.2 0 0 1 1.85-.88l3.47 2a2.48 2.48 0 0 1 1.05 2.56h0a1.21 1.21 0 0 1-1.85.88z"/><use xlink:href="#e" x="83.07" y="78.74"/><path d="M366.1 184.22L341 169.7a2.48 2.48 0 0 1-1.05-2.56h0a1.2 1.2 0 0 1 1.85-.89l25.14 14.52a2.47 2.47 0 0 1 1 2.56h0a1.2 1.2 0 0 1-1.83.88zm-14.03 8.25l-14.43-8.33a2.48 2.48 0 0 1-1.06-2.56h0a1.21 1.21 0 0 1 1.85-.89l14.43 8.3a2.48 2.48 0 0 1 1.06 2.56h0a1.2 1.2 0 0 1-1.85.91zm-.42 16.1l-17.34-10a2.48 2.48 0 0 1-1.06-2.56h0a1.2 1.2 0 0 1 1.85-.88l17.35 10a2.47 2.47 0 0 1 1.05 2.56h0a1.2 1.2 0 0 1-1.85.88zM317.6 358.33l-20.3-11.82c-1.7-1-1.5-2.72.48-3.86l19.36-11.28a7.44 7.44 0 0 1 6.69-.27l20.3 11.8c1.7 1 1.5 2.72-.48 3.86l-19.36 11.28a7.42 7.42 0 0 1-6.69.28z"/></g><path d="M350.32 321.7h0v-4.9h-25.87c-2.07-1.2-5.68-1-8.07.34l.77-.32h-26.07v5.2a2.33 2.33 0 0 0 1.38 2.16L317 338.4c2.07 1.2 5.68 1 8.06-.34l23.35-13.6c1.32-.8 2-1.82 1.9-2.78z" fill="#721bd5"/><path d="M320.7 316a9.29 9.29 0 0 0-4.32 1.14l.77-.32h-26.07V322a2.33 2.33 0 0 0 1.38 2.16L317 338.4a7.36 7.36 0 0 0 3.74.8z" class="x"/><path d="M294,316.76h-2.95V322a2.33,2.33,0,0,0,1.38,2.16l1.57.9Z" class="y"/><path d="M317.47,338.66a9.19,9.19,0,0,0,6.45-.07v-6.86h-6.45Z" fill="#7e23dc"/><path d="M317 333.2L292.46 319c-2.07-1.2-1.8-3.27.58-4.65l23.34-13.6c2.4-1.38 6-1.53 8.07-.34l24.5 14.25c2.06 1.2 1.8 3.28-.58 4.66L325 332.88c-2.37 1.38-6 1.53-8 .33z" fill="#8a2ae3"/><path d="M321.5 314.83l-7.2-4.2a1.06 1.06 0 0 1 0-2 3.9 3.9 0 0 1 3.49 0l7.2 4.2a1.06 1.06 0 0 1 0 2 3.84 3.84 0 0 1-3.49 0zM332 321l-4.37-2.58a1.06 1.06 0 0 1 0-2 3.84 3.84 0 0 1 3.49 0l4.37 2.58a1.06 1.06 0 0 1 0 2 3.84 3.84 0 0 1-3.49 0zm-20.58-3.6l-4.37-2.58c-1-.55-1-1.45 0-2a3.88 3.88 0 0 1 3.48 0l4.37 2.58a1.06 1.06 0 0 1 0 2 3.81 3.81 0 0 1-3.48 0z" class="y"/></svg>