<svg xmlns="http://www.w3.org/2000/svg" height="512" viewBox="0 0 496 496.816" width="512" fill="#fff" xmlns:v="https://vecta.io/nano"><path d="M439.887 373.23l15.016 5.53a155.38 155.38 0 0 0 5.113-16.746l-15.543-3.8c-1.25 5.1-2.793 10.137-4.586 15.016zm-5.375-106.33l-3.87 15.53c5.848 1.453 11.8 2.637 17.773 3.527v39.488c0 5.855-.383 11.773-1.133 17.6l15.87 2.05c.832-6.488 1.254-13.098 1.254-19.633v-53.687L457.28 271a168.62 168.62 0 0 1-22.77-4.082zM224.406 272c-15.168 0-27.9 10.617-31.184 24.816-14.2 3.273-24.816 16.016-24.816 31.184 0 17.648 14.355 32 32 32 15.168 0 27.914-10.617 31.188-24.816 14.2-3.273 24.813-16.016 24.813-31.184 0-17.648-14.352-32-32-32zm0 48h-8v8a16.02 16.02 0 0 1-16 16c-8.82 0-16-7.176-16-16s7.18-16 16-16h8v-8c0-8.824 7.18-16 16-16a16.02 16.02 0 0 1 16 16 16.02 16.02 0 0 1-16 16zm99.314-184l-59.312-59.312-59.3 59.312 59.3 59.313zm-59.312 36.688L251.72 160l36.688-36.687 12.7 12.687zm12.7-60.688l-12.7 12.688L251.72 112l12.688-12.687zm-36.7 11.313l12.7 12.687-12.7 12.688L227.72 136zM90.746 250.344l48-47.996 11.313 11.313-47.996 47.996zm69.262-21.244l10.742-10.742 11.313 11.313-10.742 10.742zm0 0"/><path d="M137.375 251.72l11.313-11.312L160 251.72l-11.312 11.313zm-22.63 22.624l11.316-11.316 11.313 11.316-11.312 11.313zM112.406 96c0 17.648 14.355 32 32 32s32-14.352 32-32c0-5.848-1.687-11.258-4.437-15.977 2.863-4.87 4.438-10.367 4.438-16.023 0-17.648-14.352-32-32-32s-32 14.352-32 32c0 5.656 1.578 11.152 4.44 16.023-2.75 4.72-4.44 10.13-4.44 15.977zm32 16c-8.82 0-16-7.176-16-16s7.18-16 16-16a16.02 16.02 0 0 1 16 16 16.02 16.02 0 0 1-16 16zm0-64a16.02 16.02 0 0 1 16 16c0 1.52-.254 2.863-.605 4.12-4.586-2.547-9.785-4.12-15.395-4.12s-10.805 1.574-15.4 4.12c-.352-1.258-.6-2.602-.6-4.12 0-8.824 7.18-16 16-16zm331.227 192c-28.96 0-57.336-9.336-80.754-26.238 3.535-6.684 5.527-14.12 5.527-21.762 0-12.457-4.848-24.168-13.652-32.97l-89.38-89.375A46.95 46.95 0 0 0 264.406 56a46.95 46.95 0 0 0-32.965 13.656l-23.035 23.03V40c0-22.055-17.94-40-40-40h-128c-22.055 0-40 17.945-40 40v240c0 22.055 17.945 40 40 40h68.7l58.344 58.344c8.68 8.68 20.695 13.656 32.965 13.656a46.95 46.95 0 0 0 32.969-13.656l39.52-39.52c4.867 67.406 46.227 127.855 108.16 156.44l3.352 1.55 3.355-1.543c66-30.465 108.645-97.113 108.645-169.8V240zM192.406 40v68.688l-112 112V16h88c13.234 0 24 10.77 24 24zm-176 240V40c0-10.414 6.715-19.215 16-22.527V302.52c-9.285-3.305-16-12.105-16-22.52zm32 24V16h16v240a46.95 46.95 0 0 0 13.656 32.969L93.098 304zm173.656 63.03c-5.703 5.703-13.6 8.97-21.656 8.97a30.83 30.83 0 0 1-21.652-8.97l-89.38-89.375c-5.703-5.703-8.97-13.594-8.97-21.656 0-8.176 3.188-15.87 8.97-21.656L242.754 80.97A30.86 30.86 0 0 1 264.406 72a30.86 30.86 0 0 1 21.656 8.969l89.38 89.375A30.44 30.44 0 0 1 384.406 192c0 6.895-2.398 13.586-6.68 18.984a138.16 138.16 0 0 1-37.758 20.77L379.72 192l-35.312-35.312-72 72v88zm122.344-162.344L331.72 192l12.688-12.687 12.7 12.687zm-24-1.375L333.098 216l-12.7 12.688L307.72 216zm-24 24l11.762 11.758c-4.97.555-9.96.93-14.984.93h-4.777v-4.687zm184 98.152c0 65.23-37.55 125.152-96 153.68-58.445-28.527-96-88.45-96-153.68V256h4.777c32.746 0 64.887-10.586 91.223-29.922C410.742 245.414 442.895 256 475.633 256h4.773zm-64-4V288c0-17.648-14.352-32-32-32s-32 14.352-32 32v33.473c-9.285 3.313-16 12.113-16 22.527v48c0 13.23 10.77 24 24 24h48c13.234 0 24-10.77 24-24v-48c0-10.414-6.7-19.215-16-22.527zm-32-49.473a16.02 16.02 0 0 1 16 16v32h-32v-32c0-8.824 7.18-16 16-16zm32 120c0 4.414-3.582 8-8 8h-48a8.01 8.01 0 0 1-8-8v-48a8.01 8.01 0 0 1 8-8h48c4.418 0 8 3.586 8 8zm0 0"/></svg>