<svg xmlns="http://www.w3.org/2000/svg" xmlns:xlink="http://www.w3.org/1999/xlink" viewBox="0 0 423.71 395.94" xmlns:v="https://vecta.io/nano"><style><![CDATA[.B{isolation:isolate}.L,.M,.N,.O,.P,.Q,.Y,.Z,.AS{mix-blend-mode:overlay}.U{mix-blend-mode:screen}.n,.p,.q,.r,.s,.t{mix-blend-mode:color-dodge}.Ao{fill:#d0ceff}.Ap{fill:#fff}.Aq{fill:#3c1461}.Ar{fill:#efc7ee}.As{fill:#fcc4b7}.At{fill:#fefefe}.Au{fill:#d0c5df}.Av{fill:#f1ac85}.Aw{fill:#484968}.Ax{fill:#f99320}.Ay{fill:#dd936f}.Az{fill:#010400}.BA{fill-rule:evenodd}]]></style><defs><clipPath id="A" transform="translate(-40.06 -44.5)"><path d="M0 0h500v500H0z" fill="none"/></clipPath><linearGradient id="B" x1="313.49" y1="235.14" x2="330.78" y2="235.14" xlink:href="#AP"><stop offset="0" stop-color="#d0ceff"/><stop offset="1" stop-color="#ffcefc"/></linearGradient><linearGradient id="C" x1="288.07" y1="263.51" x2="359.06" y2="263.51" xlink:href="#B"/><linearGradient id="D" x1="74.66" y1="403.78" x2="93.56" y2="403.78" xlink:href="#B"/><linearGradient id="E" x1="43.74" y1="372.76" x2="121.35" y2="372.76" xlink:href="#B"/><linearGradient id="F" x1="224.88" y1="251.78" x2="470.94" y2="104.29" xlink:href="#B"/><linearGradient id="G" x1="522.03" y1="85.06" x2="143.45" y2="280.8" xlink:href="#AP"><stop offset="0" stop-color="#fff"/><stop offset=".12" stop-color="#f5f7fe" stop-opacity=".84"/><stop offset=".37" stop-color="#e1e9fd" stop-opacity=".55"/><stop offset=".59" stop-color="#d2ddfc" stop-opacity=".3"/><stop offset=".77" stop-color="#c6d5fb" stop-opacity=".14"/><stop offset=".91" stop-color="#c0d0fa" stop-opacity=".04"/><stop offset="1" stop-color="#bdcefa" stop-opacity="0"/></linearGradient><linearGradient id="H" x1="505.07" y1="52.25" x2="126.49" y2="247.99" xlink:href="#G"/><linearGradient id="I" x1="506" y1="54.06" x2="127.43" y2="249.8" xlink:href="#G"/><linearGradient id="J" x1="535.7" y1="111.5" x2="157.13" y2="307.24" xlink:href="#G"/><linearGradient id="K" x1="537.68" y1="115.32" x2="159.1" y2="311.06" xlink:href="#G"/><linearGradient id="L" x1="540.35" y1="120.49" x2="161.77" y2="316.23" xlink:href="#G"/><linearGradient id="M" x1="543.02" y1="125.66" x2="164.45" y2="321.4" xlink:href="#G"/><linearGradient id="N" x1="118.81" y1="208.76" x2="235.88" y2="208.76" xlink:href="#AP"><stop offset="0" stop-color="#b08edf"/><stop offset="1" stop-color="#d0c5df"/></linearGradient><linearGradient id="O" x1="212.6" y1="8.95" x2="93.58" y2="334.99" xlink:href="#AP"><stop offset="0" stop-color="#bedaff"/><stop offset="1" stop-color="#fff" stop-opacity="0"/></linearGradient><linearGradient id="P" x1="245.79" y1="41.58" x2="47.31" y2="567.29" xlink:href="#B"/><linearGradient id="Q" x1="182.6" y1="61.95" x2="182.6" y2="320.46" xlink:href="#AP"><stop offset="0" stop-color="#a9bdea"/><stop offset="1" stop-color="#fff" stop-opacity="0"/></linearGradient><linearGradient id="R" x1="134.43" y1="121.55" x2="230.99" y2="121.55" xlink:href="#AP"><stop offset="0" stop-color="#8e2de2"/><stop offset="1" stop-color="#4a00e0"/></linearGradient><linearGradient id="S" x1="157.34" y1="170.54" x2="172.25" y2="170.54" xlink:href="#R"/><linearGradient id="T" x1="109.32" y1="118.97" x2="120.64" y2="118.97" xlink:href="#R"/><linearGradient id="U" x1="152.73" y1="154.11" x2="168.08" y2="154.11" xlink:href="#R"/><linearGradient id="V" x1="149.38" y1="177.87" x2="165.28" y2="177.87" xlink:href="#R"/><linearGradient id="W" x1="139.48" y1="256.39" x2="170.41" y2="256.39" xlink:href="#B"/><linearGradient id="X" x1="208.4" y1="179.98" x2="241.03" y2="179.98" xlink:href="#R"/><linearGradient id="Y" x1="198.36" y1="177.02" x2="239.56" y2="177.02" xlink:href="#R"/><linearGradient id="Z" x1="231.24" y1="171.28" x2="207.65" y2="230.88" xlink:href="#G"/><linearGradient id="a" x1="273.89" y1="254.93" x2="181.23" y2="338.1" xlink:href="#B"/><linearGradient id="b" x1="215.58" y1="359.24" x2="215.58" y2="218.05" xlink:href="#AP"><stop offset=".07" stop-color="#55d1ff"/><stop offset=".16" stop-color="#4fc3ee" stop-opacity=".93"/><stop offset=".35" stop-color="#41a0c2" stop-opacity=".76"/><stop offset=".6" stop-color="#29677b" stop-opacity=".48"/><stop offset=".92" stop-color="#0a191a" stop-opacity=".1"/><stop offset="1" stop-color="#010400" stop-opacity="0"/></linearGradient><linearGradient id="c" x1="203.14" y1="282.11" x2="228.03" y2="282.11" xlink:href="#B"/><linearGradient id="d" x1="240.1" y1="276.02" x2="240.1" y2="258.75" xlink:href="#b"/><linearGradient id="e" x1="254.92" y1="296.67" x2="254.92" y2="279.4" xlink:href="#b"/><linearGradient id="f" x1="269.74" y1="317.32" x2="269.74" y2="300.05" xlink:href="#b"/><linearGradient id="g" x1="284.56" y1="337.97" x2="284.56" y2="320.7" xlink:href="#b"/><linearGradient id="h" x1="299.38" y1="358.62" x2="299.38" y2="341.35" xlink:href="#b"/><linearGradient id="i" x1="237.46" y1="180.88" x2="246.22" y2="180.88" xlink:href="#AP"><stop offset="0" stop-color="#fa941b"/><stop offset=".1" stop-color="#faa024"/><stop offset=".36" stop-color="#fbbb38"/><stop offset=".6" stop-color="#fbcb44"/><stop offset=".78" stop-color="#fbd148"/></linearGradient><linearGradient id="j" x1="229.14" y1="195.26" x2="245.68" y2="195.26" xlink:href="#i"/><linearGradient id="k" x1="225.1" y1="187.31" x2="234.42" y2="187.31" xlink:href="#i"/><linearGradient id="l" x1="308.39" y1="427.44" x2="256" y2="430.91" xlink:href="#AP"><stop offset="0" stop-color="#e4f2ff" stop-opacity="0"/><stop offset=".11" stop-color="#dfedfe" stop-opacity=".14"/><stop offset=".36" stop-color="#d3e2fd" stop-opacity=".44"/><stop offset=".58" stop-color="#c9d9fc" stop-opacity=".68"/><stop offset=".77" stop-color="#c3d3fb" stop-opacity=".85"/><stop offset=".91" stop-color="#bfcffa" stop-opacity=".96"/><stop offset="1" stop-color="#bdcefa"/></linearGradient><linearGradient id="m" x1="249.57" y1="416.93" x2="285.3" y2="416.93" xlink:href="#B"/><linearGradient id="n" x1="249.91" y1="423.09" x2="284.96" y2="423.09" xlink:href="#R"/><linearGradient id="o" x1="229.43" y1="308.05" x2="232.75" y2="308.05" xlink:href="#R"/><linearGradient id="p" x1="275.59" y1="379.4" x2="278.91" y2="379.4" xlink:href="#R"/><linearGradient id="q" x1="263.13" y1="397.72" x2="266.45" y2="397.72" xlink:href="#R"/><linearGradient id="r" x1="268.73" y1="384.87" x2="272.05" y2="384.87" xlink:href="#R"/><linearGradient id="s" x1="256" y1="379.4" x2="259.32" y2="379.4" xlink:href="#R"/><linearGradient id="t" x1="262.33" y1="364.4" x2="265.65" y2="364.4" xlink:href="#R"/><linearGradient id="u" x1="273.93" y1="340.33" x2="277.25" y2="340.33" xlink:href="#R"/><linearGradient id="v" x1="257.23" y1="335.3" x2="260.55" y2="335.3" xlink:href="#R"/><linearGradient id="w" x1="267.85" y1="305.47" x2="267.85" y2="479.72" xlink:href="#AP"><stop offset="0" stop-color="#fff" stop-opacity="0"/><stop offset="1" stop-color="#3d007e"/></linearGradient><linearGradient id="x" x1="76.83" y1="337.52" x2="101.77" y2="145.3" xlink:href="#B"/><linearGradient id="y" x1="136.21" y1="185.92" x2="116.59" y2="209.79" xlink:href="#AP"><stop offset="0" stop-color="#fff"/><stop offset=".58" stop-color="#dae4fc"/><stop offset="1" stop-color="#bdcefa"/></linearGradient><linearGradient id="z" x1="249.69" y1="187.77" x2="247.17" y2="197.64" xlink:href="#G"/><linearGradient id="AA" x1="248.8" y1="187.54" x2="246.28" y2="197.41" xlink:href="#G"/><linearGradient id="AB" x1="248.37" y1="187.43" x2="245.85" y2="197.3" xlink:href="#G"/><linearGradient id="AC" x1="247.81" y1="187.29" x2="245.29" y2="197.16" xlink:href="#G"/><linearGradient id="AD" x1="246.62" y1="186.99" x2="244.11" y2="196.86" xlink:href="#G"/><linearGradient id="AE" x1="269.18" y1="248.7" x2="284.19" y2="248.7" xlink:href="#AP"><stop offset=".07" stop-color="#8347e2"/><stop offset=".27" stop-color="#773bd1"/><stop offset=".68" stop-color="#591ca6"/><stop offset="1" stop-color="#3d007e"/></linearGradient><linearGradient id="AF" x1="268.84" y1="236.96" x2="284.19" y2="236.96" xlink:href="#i"/><linearGradient id="AG" x1="315.46" y1="350.33" x2="322.95" y2="350.33" xlink:href="#i"/><linearGradient id="AH" x1="318.38" y1="357.92" x2="333.23" y2="357.92" xlink:href="#i"/><linearGradient id="AI" x1="329.53" y1="353.92" x2="337.15" y2="353.92" xlink:href="#i"/><path id="AJ" d="M82.18 145.64l-.14-.1a2.35 2.35 0 0 1-1-1.87v-20.82c0-.72.45-1.05 1-.74l.14.08a2.36 2.36 0 0 1 1 1.88v20.82c-.02.72-.46 1.05-1 .74z"/><path id="AK" d="M151.26 192.35l-17.33 10c-1.4.8-2.53-.05-2.53-1.92v-7.17a6.08 6.08 0 0 1 2.53-4.85l17.33-10c1.4-.8 2.54.05 2.54 1.9v7.18a6.08 6.08 0 0 1-2.54 4.85z"/><path id="AL" d="M291.08 268.5v-3.4a1.92 1.92 0 0 1-1 1.23l-34.67 19.9a5.53 5.53 0 0 1-2.79.59v3.94a5.53 5.53 0 0 0 2.79-.59l34.67-19.9a1.68 1.68 0 0 0 1-1.77z"/><path id="AM" d="M200.38 327.66l-39.65 22.9a7 7 0 0 1-6.29-.26l-41.53-24a3.15 3.15 0 0 1-1.38-1.42c-.4.87.07 1.9 1.38 2.67l41.53 24a7 7 0 0 0 6.29.26l39.65-22.9a1.71 1.71 0 0 0 .94-2.23 2.09 2.09 0 0 1-.94.98z"/><path id="AN" d="M296.02 250.2l39.65 22.9a7 7 0 0 0 6.29-.26l41.53-24a3.15 3.15 0 0 0 1.38-1.42c.4.87-.07 1.9-1.38 2.67l-41.53 24a7 7 0 0 1-6.29.26l-39.65-22.9a1.71 1.71 0 0 1-.94-2.23 2.14 2.14 0 0 0 .94.98z"/><path id="AO" d="M213.522 313.66l4.172-4.172 4.172 4.172-4.172 4.172z"/><linearGradient id="AP" gradientUnits="userSpaceOnUse"/></defs><g class="B"><g><g><g clip-path="url(#A)"><g transform="translate(-40.06 -44.5)"><path d="M318.64 231l-3.7 2.14c-1.93 1.1-1.93 2.92 0 4l3.7 2.14a7.75 7.75 0 0 0 7 0l3.7-2.14c1.93-1.1 1.93-2.92 0-4l-3.7-2.14a7.69 7.69 0 0 0-7 0z" fill="url(#B)"/><path d="M316.76 268.52h0c1.93 1.12 1.93 2.92 0 4l-2.6 1.5c-1.93 1.12-1.93 2.92 0 4l3.7 2.14a7.75 7.75 0 0 0 7 0l3.7-2.14c1.93-1.12 1.93-2.92 0-4l-2.84-1.63c-1.93-1.12-1.93-2.92 0-4l13.28-7.7a7.75 7.75 0 0 1 7 0l.9.52a7.69 7.69 0 0 0 7 0l3.7-2.13c1.93-1.12 1.93-2.93 0-4l-3.7-2.14a7.75 7.75 0 0 0-7 0l-2.35 1.36a7.69 7.69 0 0 1-7 0l-13-7.48a7.69 7.69 0 0 0-7 0l-5.07 2.93a7.75 7.75 0 0 1-7 0l-3.44-2a7.69 7.69 0 0 0-7 0l-3.7 2.14c-1.93 1.1-1.93 2.92 0 4l3.44 2c1.93 1.1 1.93 2.92 0 4l-5.36 3.1c-1.93 1.1-1.93 2.92 0 4l7.9 4.57a7.75 7.75 0 0 0 7 0l5.36-3.1a7.75 7.75 0 0 1 7.08.05z" fill="url(#C)"/><path d="M87.93 408.32L92 406c2.1-1.22 2.1-3.2 0-4.42l-4-2.33a8.43 8.43 0 0 0-7.64 0l-4.05 2.33c-2.1 1.22-2.1 3.2 0 4.42l4.05 2.33a8.43 8.43 0 0 0 7.57-.01z" fill="url(#D)"/><path d="M90 367.3h0c-2.1-1.22-2.1-3.2 0-4.4l2.85-1.65c2.1-1.22 2.1-3.2 0-4.4l-4-2.34a8.43 8.43 0 0 0-7.64 0l-4 2.34c-2.2 1.18-2.2 3.18-.1 4.4l3.1 1.77c2.12 1.22 2.12 3.2 0 4.4l-14.55 8.4a8.51 8.51 0 0 1-7.65 0l-1-.57a8.43 8.43 0 0 0-7.64 0l-4 2.33c-2.1 1.22-2.1 3.2 0 4.42l4 2.33a8.43 8.43 0 0 0 7.64 0l2.57-1.48a8.43 8.43 0 0 1 7.64 0l14.17 8.18a8.43 8.43 0 0 0 7.64 0l5.54-3.2a8.45 8.45 0 0 1 7.65 0L106 390a8.43 8.43 0 0 0 7.64 0l4-2.34c2.1-1.2 2.1-3.2 0-4.4l-3.77-2.17c-2.1-1.22-2.1-3.2 0-4.4l5.86-3.38c2.1-1.22 2.1-3.2 0-4.42l-8.64-5a8.49 8.49 0 0 0-7.64 0l-5.86 3.4a8.43 8.43 0 0 1-7.59.03z" fill="url(#E)"/></g><path d="M59.87 130.27a16.56 16.56 0 0 0-7.49 13c0 4.77 3.36 6.7 7.5 4.32a16.55 16.55 0 0 0 7.48-13c0-4.77-3.35-6.7-7.48-4.32zm0 14.32c-2.72 1.57-4.92.3-4.92-2.84a10.86 10.86 0 0 1 4.92-8.51c2.7-1.56 4.9-.3 4.9 2.84a10.88 10.88 0 0 1-4.91 8.51z" class="Ar"/><g class="Ax"><path d="M56.73 162.5a9 9 0 0 1-4.09 7.09c-2.26 1.3-4.1.25-4.1-2.36a9.06 9.06 0 0 1 4.1-7.09c2.3-1.33 4.1-.28 4.1 2.36zm4.2-48.3a9 9 0 0 1-4.09 7.09c-2.26 1.3-4.1.25-4.1-2.36a9.05 9.05 0 0 1 4.09-7.09c2.3-1.34 4.1-.25 4.1 2.36zm-25.707 42.562l5.835-10.107 5.828 3.365-5.835 10.107z"/></g><path d="M43.4 128.73l-3.4 2v-3.94c0-.72-.5-1-1.14-.65a2.51 2.51 0 0 0-1.13 2v3.94l-3.4 2a2.5 2.5 0 0 0-1.14 2c0 .72.5 1 1.14.65l3.4-2v3.94c0 .73.5 1 1.13.66a2.52 2.52 0 0 0 1.14-2v-3.94l3.4-2a2.49 2.49 0 0 0 1.13-2c0-.73-.5-1.02-1.13-.66z" class="Ar"/><path d="M230.75 59.8a16.54 16.54 0 0 0-7.49 13c0 4.77 3.35 6.7 7.5 4.32a16.55 16.55 0 0 0 7.48-13c0-4.77-3.35-6.7-7.48-4.32zm0 14.32c-2.72 1.57-4.92.3-4.92-2.84a10.86 10.86 0 0 1 4.92-8.51c2.7-1.57 4.9-.3 4.9 2.84a10.88 10.88 0 0 1-4.91 8.51z" class="Ax"/><g class="Ar"><path d="M225.28 87.23a9.06 9.06 0 0 1-4.1 7.09c-2.26 1.3-4.1.25-4.1-2.36a9 9 0 0 1 4.09-7.09c2.26-1.3 4.1-.25 4.1 2.36zm6.1-43.98a9.05 9.05 0 0 1-4.09 7.09c-2.26 1.3-4.1.24-4.1-2.37a9.05 9.05 0 0 1 4.09-7.09c2.26-1.3 4.1-.24 4.1 2.37zm-27.582 38.273l5.835-10.107 5.828 3.365-5.835 10.107z"/></g><path d="M217.63 53.25l-3.42 2v-3.97c0-.73-.5-1-1.13-.66a2.49 2.49 0 0 0-1.13 2v3.88l-3.42 2a2.51 2.51 0 0 0-1.13 2c0 .72.5 1 1.13.65l3.42-2v3.94c0 .73.5 1 1.13.66a2.49 2.49 0 0 0 1.13-2V57.8l3.42-2a2.55 2.55 0 0 0 1.13-2c0-.63-.5-.93-1.13-.56z" class="Ax"/><g transform="translate(-40.06 -44.5)"><path d="M440.65 266.5l-129.2-74.6a15.41 15.41 0 0 1-7.71-13.35V59.94a15.42 15.42 0 0 1 23.12-13.35l129.2 74.6a15.41 15.41 0 0 1 7.71 13.35v118.62a15.41 15.41 0 0 1-23.12 13.35z" fill="url(#F)"/><path d="M448.33 263.42a10.16 10.16 0 0 1-5.1-1.39L314 187.44a10.29 10.29 0 0 1-5.12-8.88V59.94c.01-5.667 4.603-10.26 10.27-10.27a10.07 10.07 0 0 1 5.1 1.4l129.2 74.6a10.26 10.26 0 0 1 5.12 8.87v118.62c-.01 5.652-4.578 10.237-10.23 10.27zM319.2 50.67a9.29 9.29 0 0 0-9.27 9.27v118.62a9.26 9.26 0 0 0 4.62 8l129.2 74.6a9.08 9.08 0 0 0 4.6 1.26 9.29 9.29 0 0 0 9.27-9.27v-118.6a9.28 9.28 0 0 0-4.62-8l-129.2-74.6a9.18 9.18 0 0 0-4.6-1.26z" fill="url(#G)"/><path class="L" d="M442.17 151.85L330.6 87.45c-2.5-1.44-4.53-5.34-4.53-8.66h0c0-3.32 2-4.86 4.53-3.42l111.56 64.4c2.5 1.44 4.52 5.34 4.52 8.66h0c0 3.32-2.03 4.86-4.52 3.42z" fill="url(#H)"/><path class="M" d="M367.64 170.63l-35.4-20.43c-2.5-1.44-4.53-5.34-4.53-8.66V102.3c0-3.33 2-4.87 4.53-3.43l35.4 20.44c2.5 1.44 4.53 5.33 4.53 8.66v39.25c0 3.32-2.04 4.86-4.53 3.42z" fill="url(#I)"/><path class="N" d="M434.15 209l-35.4-20.4c-2.5-1.44-4.53-5.33-4.53-8.66V140.7c0-3.32 2-4.86 4.53-3.42l35.4 20.43c2.5 1.44 4.54 5.34 4.54 8.66v39.25c0 3.32-2.04 4.87-4.54 3.4z" fill="url(#J)"/><path class="O" d="M440.6 230l-114.8-66.23a3.08 3.08 0 0 1-1.28-2.46h0c0-.95.57-1.4 1.28-1l114.8 66.28a3.06 3.06 0 0 1 1.29 2.46h0c0 .95-.57 1.4-1.3.95z" fill="url(#K)"/><path class="P" d="M440.6 236.6l-114.8-66.28a3.08 3.08 0 0 1-1.28-2.46h0c0-1 .57-1.4 1.28-1l114.8 66.28a3.06 3.06 0 0 1 1.29 2.46h0c0 .97-.57 1.4-1.3 1z" fill="url(#L)"/><path class="Q" d="M440.6 243.15l-114.8-66.28a3.08 3.08 0 0 1-1.28-2.46h0c0-.95.57-1.4 1.28-1l114.8 66.27a3.06 3.06 0 0 1 1.29 2.46h0c0 .98-.57 1.42-1.3 1z" fill="url(#M)"/></g><path d="M84.62 312.97v-227c0-6.27 3.8-13.56 8.52-16.28l97.27-56.2c4.7-2.7 8.52.17 8.52 6.44v227c0 6.28-3.82 13.57-8.52 16.3l-97.27 56.2c-4.7 2.7-8.52-.17-8.52-6.45z" class="Ao"/><path d="M196 13.1h0l-.18-.1z" fill="#a9bdea"/><path d="M127 363.92c-1.44-1.2-2.32-3.43-2.32-6.45v-227c0-6.27 3.8-13.56 8.52-16.28L230.47 58c2.06-1.18 3.94-1.3 5.4-.53l-5.2-3c-1.54-1.22-3.7-1.3-6.1.1l-97.27 56.16c-4.7 2.72-8.52 10-8.52 16.28v227c0 3.76 1.38 6.3 3.5 7.14h0z" transform="translate(-40.06 -44.5)" fill="url(#N)"/><path d="M88.32 320.2h0z" fill="#a9bdea"/><g transform="translate(-40.06 -44.5)"><path class="U" d="M128.4 364.7zM229.65 57.76l-97.27 56.16c-4.7 2.72-8.52 10-8.52 16.28v227a8.79 8.79 0 0 0 1.84 6l1.3.75c-1.44-1.2-2.32-3.43-2.32-6.45v-227c0-6.27 3.8-13.56 8.52-16.28L230.47 58a6.12 6.12 0 0 1 4.36-.91 5.63 5.63 0 0 0-5.18.67zm6.25-.26l.17.1z" fill="url(#O)"/><path d="M229.83 62.7l-16.78 9.7-2.52 6.32a14.88 14.88 0 0 1-5.82 7.18L159 112.3c-2.4 1.38-4.6 1.2-5.82-.45l-2.52-3.4-16.8 9.7a12 12 0 0 0-5.44 9.42V356.1c0 3.47 2.44 4.88 5.44 3.14l96-55.42a12 12 0 0 0 5.44-9.42V65.83c-.04-3.47-2.47-4.83-5.48-3.14z" fill="url(#P)"/></g><path d="M156.64 41.32l-29.7 17.18c-.53.3-1 0-1-.73h0a2.34 2.34 0 0 1 1-1.85l29.7-17.18c.53-.3 1 0 1 .73h0a2.33 2.33 0 0 1-1 1.85z" class="Ap"/><use xlink:href="#AJ" fill="#7b97c9"/><g class="Ao"><path d="M81.1 145.64l-.14-.1a2.35 2.35 0 0 1-1-1.87v-20.82c0-.72.45-1.05 1-.74l.14.08a2.36 2.36 0 0 1 1 1.88v20.82c-.02.72-.46 1.05-1 .74zm96.84-128.87a1 1 0 1 1 0 2 3.75 3.75 0 0 1-3.39 0 1 1 0 1 1 0-2 3.75 3.75 0 0 1 3.39 0z"/></g><path d="M177.94 16.77a3.75 3.75 0 0 0-3.39 0 1.61 1.61 0 0 0-.54.48l.2-.15a3.75 3.75 0 0 1 3.39 0c.7.4.87 1 .54 1.5.7-.55.65-1.32-.2-1.82z" class="Ap"/><g class="Y Ap" opacity=".32"><path d="M195.2 129.44V53.27L88.3 160.15v76.16l106.9-106.87zm-106.9 8.34L195.18 30.9v-9.57c0-3.47-2.43-4.87-5.44-3.14l-8.58 5-10.5 10.5-.22.56a14.83 14.83 0 0 1-5.82 7.18l-4 2.3L88.3 116zm107.9 52.5v-43.75L89.33 253.4v43.75L196.2 190.28zm-1 39.4v-10l-86.4 86.4 23.68-13.67 62.72-62.72z"/></g><path class="Z" d="M204.7 85.88L159 112.3c-2.4 1.38-4.6 1.2-5.82-.45l-2.52-3.4-16.8 9.7a11.21 11.21 0 0 0-3.91 4.18 10.23 10.23 0 0 1 2.82-2.55l16.8-9.7 2.52 3.4c1.22 1.66 3.43 1.83 5.82.45l45.74-26.4a13.83 13.83 0 0 0 4.79-5.05 13 13 0 0 1-3.73 3.42zm25.12-23.2l-16.78 9.7-.52 1.3 16.2-9.36c3-1.74 5.44-.33 5.44 3.14V296a11.08 11.08 0 0 1-1.52 5.24 11.89 11.89 0 0 0 2.61-6.87V65.83c0-3.47-2.43-4.83-5.44-3.14z" transform="translate(-40.06 -44.5)" fill="url(#Q)"/><g class="Ao"><path d="M127.65 148.12l-29.47 17c-2.06 1.2-3.73-.07-3.73-2.8h0c0-2.75 1.67-5.93 3.73-7.12l29.47-17c2-1.2 3.72.07 3.72 2.8h0c0 2.74-1.67 5.93-3.72 7.12zm10.55 7.73l-40 23.1c-2.06 1.2-3.73-.07-3.73-2.8h0c0-2.74 1.67-5.93 3.73-7.12l40-23.1c2.05-1.2 3.72.08 3.72 2.82h0c.03 2.76-1.67 5.93-3.72 7.1zm-17.6 23.97l-22.43 13c-2.06 1.18-3.73-.08-3.73-2.82h0c0-2.74 1.67-5.93 3.73-7.12l22.43-13c2.06-1.18 3.72.08 3.72 2.82h0c0 2.8-1.66 5.94-3.72 7.12z"/></g><path d="M184.84 248.72l-84.5 48.78c-3.3 1.9-6-.13-6-4.52v-46.15c0-4.4 2.7-9.53 6-11.42l84.5-48.78c3.3-1.9 6 .13 6 4.5v46.16c-.02 4.4-2.7 9.52-6 11.42z" fill="#b08edf"/><path d="M231 97.8v-4.2c0-3.62-2.54-5.1-5.68-3.28l-85.2 49.2a12.55 12.55 0 0 0-5.68 9.84v4.2z" transform="translate(-40.06 -44.5)" fill="url(#R)"/><g class="Ao"><path d="M104.4 97.88a5.05 5.05 0 0 1-2.28 4c-1.26.73-2.3.14-2.3-1.32a5.06 5.06 0 0 1 2.29-4c1.26-.73 2.28-.14 2.28 1.32zm8.04-4.64a5.06 5.06 0 0 1-2.29 4c-1.26.73-2.3.14-2.3-1.32a5.08 5.08 0 0 1 2.29-4c1.26-.72 2.3-.13 2.3 1.32zm8.03-4.64a5 5 0 0 1-2.29 3.95c-1.26.73-2.28.14-2.28-1.3a5.05 5.05 0 0 1 2.28-4c1.26-.7 2.3-.1 2.3 1.36z"/></g><path d="M109.3 126.04l7.95 10c-6.37 8.3-14.8 11.55-19.55 7.54-2-1.68-3.16-4.5-3.32-8.06z" class="Ap"/><path d="M109.3 126.04l-14.92 9.5c-.25-5.36 1.8-11.86 5.5-17.48 3.57-5.4 8.3-9.4 12.77-10.8z" class="Ao"/><path d="M157.34 175.17l3.35-18.75c3.25-1 6.15-.6 8.25 1.18 5.17 4.37 4.18 15.9-2.2 25.53q-.7 1.06-1.47 2.07z" transform="translate(-40.06 -44.5)" fill="url(#S)"/><path d="M120.64 111.9l-7.97-4.63-3.35 18.75 7.96 4.64 3.36-18.76z" fill="url(#T)"/><path d="M128.02 112.47h0z" fill="#335185"/><g transform="translate(-40.06 -44.5)"><path d="M168.08 157l-7.9-4.6a8.82 8.82 0 0 0-7.44-.59l8 4.64a8.82 8.82 0 0 1 7.35.55z" fill="url(#U)"/><path d="M157.33,180.55l7.95,4.65-7.94-10-8-4.63,7.94,10Z" fill="url(#V)"/></g><g class="Ao"><path d="M190.94 176.8L95.1 232.13V230l95.83-55.33v2.14zm0-27.2L95.1 204.9v-2.14l95.83-55.33v2.15z"/><use xlink:href="#AK"/><path d="M183.24 173.9l-17.3 10c-1.4.8-2.54-.05-2.54-1.92v-7.17a6.09 6.09 0 0 1 2.54-4.85l17.33-10c1.4-.8 2.53 0 2.53 1.9v7.17a6.08 6.08 0 0 1-2.56 4.85z"/></g><path d="M148.73,271.43a1.54,1.54,0,0,0,1.81,0l17.33-10a6.08,6.08,0,0,0,2.54-4.84v-7.18a2.34,2.34,0,0,0-.78-2l-8.47-6.05a1.56,1.56,0,0,0-1.81,0l-17.33,10a6.09,6.09,0,0,0-2.54,4.85v7.17a2.33,2.33,0,0,0,.78,2Z" transform="translate(-40.06 -44.5)" fill="url(#W)"/><g class="Ao"><path d="M127.8 216.9l-17.33 10c-1.4.8-2.53-.05-2.53-1.92v-7.17a6.08 6.08 0 0 1 2.53-4.85l17.33-10c1.4-.8 2.54.05 2.54 1.9v7.18a6.08 6.08 0 0 1-2.54 4.85zm59.68-125.24L138.42 120c-1.84 1.06-3.33-.06-3.33-2.5v-12.7a7.94 7.94 0 0 1 3.33-6.34l49.06-28.33c1.84-1.06 3.32.06 3.32 2.5V85.3a7.94 7.94 0 0 1-3.32 6.34z"/></g><g class="Ap"><path d="M156.94 103.84l-18.57 10.72c-.45.25-.8 0-.8-.6h0a1.89 1.89 0 0 1 .8-1.53l18.57-10.76c.44-.26.8 0 .8.6v.05a1.93 1.93 0 0 1-.8 1.53zm5.2-7.22l-23.8 13.74c-.45.25-.8 0-.8-.6h0a1.89 1.89 0 0 1 .8-1.53l23.8-13.74c.44-.26.8 0 .8.6v.05a1.93 1.93 0 0 1-.8 1.49zm0-4.2l-23.8 13.74c-.45.25-.8 0-.8-.6h0a1.89 1.89 0 0 1 .8-1.53l23.8-13.74c.44-.26.8 0 .8.6h0a1.93 1.93 0 0 1-.8 1.54z"/></g><path d="M197.92 94.55l-12.14 7V90.2l12.14-7v11.36z" class="Ao"/><path d="M197.92 83.2l-.08.05-11.95-7v-.1l-12.14 7V94.5l12.03 7.06V90.2l12.14-7z" class="Au"/><g transform="translate(-40.06 -44.5)"><path d="M237 191.7l-24.6 14.22c-2.2 1.28-4-.08-4-3v-27c0-3 1.8-6.37 4-7.65L237 154c2.2-1.28 4 .07 4 3v27c0 3-1.76 6.44-4 7.7z" fill="url(#X)"/><path d="M208.4 202.9v-27c0-3 1.8-6.37 4-7.65L237 154a2.6 2.6 0 0 1 2.53-.26h0l-10-5.65a2.55 2.55 0 0 0-2.59.23l-24.63 14.2c-2.2 1.28-4 4.7-4 7.65v27c0 1.67.58 2.82 1.48 3.28l10 5.65c-.8-.44-1.4-1.57-1.4-3.2z" fill="url(#Y)"/><path d="M226.94 179.14a13.16 13.16 0 0 0 3.7-8.46c0-3.78-2.65-5.3-5.92-3.42a13.09 13.09 0 0 0-5.92 10.25c0 2.87 1.53 4.43 3.7 4.2-5 4.07-8.88 11.3-9.12 17.55l22.7-13.1c-.24-5.97-4.06-8.77-9.12-7.02z" fill="url(#Z)"/></g><path d="M225.43 177.28l-34.67 19.34a6.75 6.75 0 0 1-6-.25l-20.2-11.67c-1.78-1-2-2.58-.44-3.47l34.67-19.34a6.72 6.72 0 0 1 6 .25l20.2 11.66c1.8 1.03 1.96 2.6.45 3.48z" class="Ao"/><g transform="translate(-40.06 -44.5)"><path d="M266.5 315v-94.45a2 2 0 0 1-1 1.23l-34.67 19.34a5.58 5.58 0 0 1-2.79.59v95a5.38 5.38 0 0 0 2.79-.59l34.67-19.34a1.7 1.7 0 0 0 1-1.78z" fill="url(#a)"/><path class="n" d="M224.8 240.87l-20.2-11.67a2.66 2.66 0 0 1-1.44-1.7V322c-.16.77.33 1.6 1.44 2.25l20.2 11.66a7 7 0 0 0 3.23.84v-95a7 7 0 0 1-3.23-.88z" fill="url(#b)"/><path d="M224.8 240.87l-20.2-11.67a2.66 2.66 0 0 1-1.44-1.7V322c-.16.77.33 1.6 1.44 2.25l20.2 11.66a7 7 0 0 0 3.23.84v-95a7 7 0 0 1-3.23-.88z" fill="url(#c)"/></g><path d="M245.62 204.33l-34.68 19.9a6.67 6.67 0 0 1-6-.25l-11.53-6.88c-1.78-1-2-2.58-.44-3.47l34.54-19.8a6.72 6.72 0 0 1 6 .25l11.66 6.78c1.77 1.03 1.98 2.6.45 3.48z" class="Ao"/><path d="M246.62 206.5v-3.4a1.91 1.91 0 0 1-1 1.23l-34.68 19.9a5.33 5.33 0 0 1-2.79.59v3.94a5.33 5.33 0 0 0 2.79-.59l34.68-19.9a1.71 1.71 0 0 0 1-1.77z" class="Ar"/><path class="p" d="M245 268.48l-11.53-6.88a2.66 2.66 0 0 1-1.44-1.7v3.4c-.16.76.33 1.6 1.44 2.25l11.53 6.87a6.74 6.74 0 0 0 3.22.84v-3.94a6.74 6.74 0 0 1-3.22-.84z" transform="translate(-40.06 -44.5)" fill="url(#d)"/><path d="M204.94 223.98l-11.53-6.88a2.66 2.66 0 0 1-1.44-1.7v3.4c-.16.76.33 1.6 1.44 2.25l11.53 6.87a6.74 6.74 0 0 0 3.22.84v-3.94a6.74 6.74 0 0 1-3.22-.84z" class="Au"/><path d="M260.43 224.98l-34.67 19.9a6.67 6.67 0 0 1-6-.25l-11.53-6.87c-1.78-1-2-2.6-.44-3.48l34.53-19.78a6.72 6.72 0 0 1 6 .25L260 221.5c1.78 1 1.94 2.6.43 3.48z" class="Ao"/><path d="M261.44 227.15v-3.4a1.89 1.89 0 0 1-1 1.23l-34.67 19.9a5.33 5.33 0 0 1-2.83.62v3.94a5.33 5.33 0 0 0 2.79-.59l34.67-19.9a1.69 1.69 0 0 0 1.04-1.8z" class="Ar"/><path class="q" d="M259.8 289.13l-11.53-6.87a2.67 2.67 0 0 1-1.44-1.71V284c-.16.76.33 1.6 1.44 2.25l11.53 6.88a6.85 6.85 0 0 0 3.22.83V290a6.74 6.74 0 0 1-3.22-.87z" transform="translate(-40.06 -44.5)" fill="url(#e)"/><path d="M219.75 244.63l-11.53-6.87a2.67 2.67 0 0 1-1.44-1.71v3.45c-.16.76.33 1.6 1.44 2.25l11.53 6.88a6.85 6.85 0 0 0 3.22.83v-3.96a6.74 6.74 0 0 1-3.22-.87z" class="Au"/><path d="M275.25 245.63l-34.67 19.87a6.7 6.7 0 0 1-6-.24l-11.53-6.88c-1.78-1-2-2.6-.44-3.48l34.54-19.8a6.75 6.75 0 0 1 6 .25l11.66 6.78c1.8 1.06 1.98 2.62.44 3.5z" class="Ao"/><path d="M276.26 247.8v-3.4a1.92 1.92 0 0 1-1 1.23l-34.68 19.87a5.33 5.33 0 0 1-2.79.59v3.95a5.53 5.53 0 0 0 2.79-.59l34.67-19.9a1.69 1.69 0 0 0 1.01-1.74z" class="Ar"/><path class="r" d="M274.63 309.8l-11.53-6.88a2.67 2.67 0 0 1-1.44-1.71v3.4c-.16.76.33 1.6 1.44 2.25l11.53 6.88a7 7 0 0 0 3.22.84v-3.95a6.85 6.85 0 0 1-3.22-.83z" transform="translate(-40.06 -44.5)" fill="url(#f)"/><path d="M234.57 265.3l-11.53-6.88a2.67 2.67 0 0 1-1.44-1.71v3.4c-.16.76.33 1.6 1.44 2.25l11.53 6.88a7 7 0 0 0 3.22.84v-3.95a6.85 6.85 0 0 1-3.22-.83z" class="Au"/><path d="M290.07 266.28l-34.67 19.9a6.73 6.73 0 0 1-6-.25l-11.54-6.88c-1.77-1-2-2.6-.43-3.48l34.5-19.8a6.75 6.75 0 0 1 6 .25l11.66 6.78c1.82 1.03 2 2.6.47 3.48z" class="Ao"/><use xlink:href="#AL" class="Ar"/><path class="s" d="M289.45 330.44l-11.54-6.88a2.69 2.69 0 0 1-1.43-1.7v3.4c-.16.76.33 1.6 1.43 2.25l11.54 6.88a7 7 0 0 0 3.22.84v-3.94a7 7 0 0 1-3.22-.84z" transform="translate(-40.06 -44.5)" fill="url(#g)"/><path d="M249.4 285.94l-11.54-6.88a2.69 2.69 0 0 1-1.43-1.7v3.4c-.16.76.33 1.6 1.43 2.25l11.54 6.88a7 7 0 0 0 3.22.84v-3.94a7 7 0 0 1-3.22-.84z" class="Au"/><path d="M304.94 286.93l-34.67 19.9a6.73 6.73 0 0 1-6-.25l-11.54-6.88c-1.77-1-2-2.6-.43-3.48l34.54-19.8a6.75 6.75 0 0 1 6 .25l11.62 6.83c1.78 1 1.97 2.54.48 3.43z" class="Ao"/><path d="M305.94 289.1v-3.4a1.92 1.92 0 0 1-1 1.23l-34.67 19.9a5.53 5.53 0 0 1-2.79.59v3.94a5.53 5.53 0 0 0 2.79-.59l34.67-19.9a1.68 1.68 0 0 0 1-1.77z" class="Ar"/><path class="t" d="M304.27 351.1l-11.54-6.88a2.69 2.69 0 0 1-1.43-1.7v3.4c-.16.77.33 1.6 1.43 2.25l11.54 6.85a7 7 0 0 0 3.22.84v-3.94a7 7 0 0 1-3.22-.81z" transform="translate(-40.06 -44.5)" fill="url(#h)"/><path d="M264.2 306.6l-11.54-6.88a2.69 2.69 0 0 1-1.43-1.7v3.4c-.16.77.33 1.6 1.43 2.25l11.54 6.85a7 7 0 0 0 3.22.84v-3.94a7 7 0 0 1-3.22-.81z" class="Au"/><g fill="#370b96"><path d="M187.44 183.35c-.05.84 1.2 2 3.12 3.1 2.54 1.47 3.44 3.33 6.6 1.5.9-.52 1.28-.93 1.3-1.3v-2c.1-.9-2.1-1.48-3.92-2.54-2.55-1.46-5.3-2.26-6.6-1.5a.87.87 0 0 0-.5.72z"/><path d="M190.56 184.5c-2.54-1.46-3.93-3-2.62-3.8s4 0 6.6 1.5 5.76 2 2.62 3.8-4.05-.07-6.6-1.52zm3.94-6c0 .84 1.2 2 3.12 3.1 2.54 1.47 3.45 3.33 6.6 1.5.9-.52 1.28-.93 1.3-1.3v-2c.1-.9-2.1-1.47-3.92-2.53-2.55-1.46-5.3-2.26-6.6-1.5a.87.87 0 0 0-.5.72z"/></g><path d="M197.63 179.6c-2.54-1.46-3.93-3.05-2.62-3.8s4 .05 6.6 1.5 5.76 2 2.62 3.8-4.05-.05-6.6-1.52z" fill="#2d0d60"/><path d="M191.7 120.1h0a2.09 2.09 0 0 1 2.88.65l8.68 13.8a2.08 2.08 0 0 1-.66 2.87h0a2.08 2.08 0 0 1-2.87-.65l-8.68-13.8a2.09 2.09 0 0 1 .65-2.87z" class="As"/><path d="M237.46 179.7l2.8 4.45a3.24 3.24 0 0 0 4.45 1h0a3.24 3.24 0 0 0 1-4.45l-2.8-4.46s-3.5-1.3-5.45 3.46z" transform="translate(-40.06 -44.5)" fill="url(#i)"/><g class="Aq"><path d="M198.36 183.83a1.35 1.35 0 0 0 .14-.63v-21.8c0-1.38-1.42-2.5-3.16-2.5h0c-1.74 0-3.16 1.13-3.16 2.5v23.72a.8.8 0 0 0 .56.76c1.2.37 4.1.9 5.62-2.04zm7.1-5.1a1.56 1.56 0 0 0 .13-.64l-.48-21.8c0-1.38-1.48-2.48-3.2-2.44h0c-1.74 0-3.14 1.2-3.1 2.57l.52 23.72a.8.8 0 0 0 .58.75c1.22.34 4.06.8 5.57-2.16z"/></g><path d="M233.28 209.8a.62.62 0 0 0 .27.09c1.4.1 6.42-1 11.45-6.65a2.66 2.66 0 0 0 .68-1.63v-16.08a2.63 2.63 0 0 0-1.13-2.45l-3.78-2.2a2.63 2.63 0 0 0-2.69.25l-5.16 3a8.39 8.39 0 0 0-3.78 6.55v16.17a.81.81 0 0 0 .36.77z" transform="translate(-40.06 -44.5)" fill="url(#j)"/><path d="M194.7 140.6a1.32 1.32 0 0 0 .78 1.11 4.17 4.17 0 0 0 3.77 0 1.32 1.32 0 0 0 .77-1.11v-3.5a1.3 1.3 0 0 0-.77-1.1 4.11 4.11 0 0 0-3.77 0 1.29 1.29 0 0 0-.78 1.1z" class="Ay"/><g class="As"><circle cx="197.35" cy="131.51" r="7.34"/><path d="M175.72 130.34h0a2.09 2.09 0 0 1 2.94-.22l11.8 10.68a2.1 2.1 0 0 1 .22 2.95h0a2.09 2.09 0 0 1-2.94.22l-11.8-10.7a2.09 2.09 0 0 1-.22-2.94z"/></g><path d="M225.1 187.66l4 3.43a3.25 3.25 0 0 0 4.56-.34h0a3.25 3.25 0 0 0-.34-4.56l-4-3.43s-3.75-.23-4.22 4.9z" transform="translate(-40.06 -44.5)" fill="url(#k)"/><path d="M201.5 138.2c-2.32 1.35-4.1.33-4.72-.65-1.58-2.45-1.84-.82-2.78-2-1.24-2-1-4.8-2.68-6.08-2.46-1.84-1.8-5.5 4.63-7.13 8.63-2.2 12 8.67 6.64 14.95a3.21 3.21 0 0 1-1.09.91z" class="Aq BA"/><path d="M194.8 135.88c-.62.62-1.3.44-1.53-.4a3 3 0 0 1 .71-2.65c.62-.62 1.3-.43 1.53.4a3 3 0 0 1-.71 2.65z" class="As"/><path d="M200.38 317.55l-39.65 22.9a7 7 0 0 1-6.29-.26l-41.5-23.98c-1.85-1.07-2.05-2.7-.45-3.63l39.65-22.9a7 7 0 0 1 6.29.26l41.53 24c1.82 1.05 2.03 2.68.42 3.6z" class="At"/><g class="Ao"><path d="M200.38 317.55l-39.65 22.9a7 7 0 0 1-6.29-.26l-41.5-23.98a2.56 2.56 0 0 1-1.53-2.1h0v1.57a2.53 2.53 0 0 0 1.53 2.12l41.53 24a7 7 0 0 0 6.29.26l39.65-22.9a1.87 1.87 0 0 0 1.08-1.53v-1.57a1.88 1.88 0 0 1-1.11 1.49zm-54.02-5.35l-16 9.23a2.36 2.36 0 0 1-2.14-.09l-10.52-6.08c-.63-.36-.7-.9-.15-1.23l16-9.23a2.38 2.38 0 0 1 2.15.09l10.52 6.07c.62.37.72.92.14 1.24zm27.16-8.57l-37.06 21.4a2.19 2.19 0 0 1-2-.08h0c-.6-.34-.66-.86-.15-1.15l37.07-21.4a2.23 2.23 0 0 1 2 .08h0c.56.34.65.86.14 1.15zm4.08 2.35l-37.06 21.4a2.19 2.19 0 0 1-2-.08h0c-.6-.34-.66-.86-.15-1.15l37.07-21.4a2.19 2.19 0 0 1 2 .08h0c.6.34.65.86.14 1.15zm4.06 2.35l-37.06 21.4a2.23 2.23 0 0 1-2-.08h0c-.6-.34-.66-.86-.15-1.15l37.07-21.4a2.19 2.19 0 0 1 2 .08h0c.6.32.65.86.14 1.15zm-16.86 14.44l-16.12 9.3a2.25 2.25 0 0 1-2-.08h0c-.6-.34-.65-.86-.14-1.15l16.13-9.35a2.19 2.19 0 0 1 2 .08h0c.58.38.64.92.13 1.2zm2.5-22.65l-16 9.23a2.35 2.35 0 0 1-2.14-.09l-10.52-6.07c-.63-.37-.7-.92-.15-1.24l16-9.23a2.35 2.35 0 0 1 2.14.09l10.53 6.07c.62.37.7.92.14 1.24zm28.14 16.24l-36.93 21.32a2.35 2.35 0 0 1-2.14-.09l-5-2.9c-.64-.37-.7-.92-.16-1.24l36.93-21.32a2.42 2.42 0 0 1 2.14.09l5 2.9c.66.37.7.92.16 1.23zm4.94 4.04l-39.65 22.9a7 7 0 0 1-6.29-.26l-41.53-24a2.55 2.55 0 0 1-1.53-2.09h0v1.57a2.56 2.56 0 0 0 1.53 2.12l41.53 24a7 7 0 0 0 6.29.27l39.65-22.9a1.85 1.85 0 0 0 1.08-1.53v-1.57a1.87 1.87 0 0 1-1.08 1.5z"/></g><path d="M200.38 319.14l-39.65 22.9a7 7 0 0 1-6.29-.26l-41.53-24a3.15 3.15 0 0 1-1.38-1.42c-.4.88.07 1.9 1.38 2.67l41.53 24a7 7 0 0 0 6.29.26l39.65-22.9a1.7 1.7 0 0 0 .94-2.22 2.12 2.12 0 0 1-.94.97z" class="At"/><path d="M200.38 323.23l-39.65 22.9a7 7 0 0 1-6.29-.26l-41.53-24a2.56 2.56 0 0 1-1.53-2.09h0v1.56a2.56 2.56 0 0 0 1.56 2.17l41.53 24a7 7 0 0 0 6.29.26l39.65-22.9a1.85 1.85 0 0 0 1.08-1.53v-1.57a1.87 1.87 0 0 1-1.11 1.46z" class="Ao"/><path d="M200.38 321.98l-39.65 22.9a7 7 0 0 1-6.29-.26l-41.53-24a3.15 3.15 0 0 1-1.38-1.42c-.4.88.07 1.9 1.38 2.67l41.53 24a7 7 0 0 0 6.29.26l39.65-22.9a1.71 1.71 0 0 0 .94-2.23 2.09 2.09 0 0 1-.94.98z" class="At"/><path d="M200.38 326.07l-39.65 22.9a7 7 0 0 1-6.29-.26l-41.53-24a2.56 2.56 0 0 1-1.53-2.1h0v1.57a2.53 2.53 0 0 0 1.53 2.12l41.53 24a7 7 0 0 0 6.29.26l39.65-22.9a1.87 1.87 0 0 0 1.08-1.53v-1.57a1.88 1.88 0 0 1-1.08 1.51z" class="Ao"/><path d="M200.38 324.82l-39.65 22.9a7 7 0 0 1-6.29-.26l-41.5-23.95a3.15 3.15 0 0 1-1.38-1.42c-.4.87.07 1.9 1.38 2.67l41.53 24a7 7 0 0 0 6.29.26l39.65-22.9a1.71 1.71 0 0 0 .94-2.23 2.09 2.09 0 0 1-.97.93z" class="At"/><path d="M200.38 328.9l-39.65 22.9a7 7 0 0 1-6.29-.26l-41.53-24a2.56 2.56 0 0 1-1.53-2.1h0V327a2.53 2.53 0 0 0 1.53 2.12l41.53 24a7 7 0 0 0 6.29.26l39.65-22.9a1.87 1.87 0 0 0 1.08-1.53v-1.57a1.88 1.88 0 0 1-1.08 1.51z" class="Ao"/><use xlink:href="#AM" class="At"/><path d="M200.38 331.75l-39.65 22.9a7 7 0 0 1-6.29-.26l-41.5-23.98a2.56 2.56 0 0 1-1.53-2.1h0v1.57a2.53 2.53 0 0 0 1.53 2.12l41.53 24a7 7 0 0 0 6.29.26l39.65-22.9a1.87 1.87 0 0 0 1.08-1.53v-1.57a1.89 1.89 0 0 1-1.11 1.49z" class="Ao"/><path d="M200.38 330.5l-39.65 22.9a7 7 0 0 1-6.29-.26l-41.53-24a3.15 3.15 0 0 1-1.38-1.42c-.4.87.07 1.9 1.38 2.67l41.53 24a7 7 0 0 0 6.29.26l39.65-22.9a1.71 1.71 0 0 0 .94-2.23 2.09 2.09 0 0 1-.94.98z" class="At"/><path d="M200.38 334.6l-39.65 22.9a7 7 0 0 1-6.29-.26l-41.53-24a2.56 2.56 0 0 1-1.53-2.1h0v1.57a2.53 2.53 0 0 0 1.53 2.12l41.53 24a7 7 0 0 0 6.29.26l39.65-22.9a1.87 1.87 0 0 0 1.08-1.53v-1.57a1.89 1.89 0 0 1-1.08 1.49z" class="Ao"/><path d="M200.38 333.34l-39.65 22.9a7 7 0 0 1-6.29-.26l-41.53-24a3.15 3.15 0 0 1-1.38-1.42c-.4.87.07 1.9 1.38 2.67l41.53 24a7 7 0 0 0 6.29.26l39.65-22.9a1.71 1.71 0 0 0 .94-2.23 2.14 2.14 0 0 1-.94.98z" class="At"/><path d="M296.02 245.76l39.65 22.9a7 7 0 0 0 6.29-.26l41.53-24c1.85-1.07 2.06-2.7.45-3.63l-39.65-22.9a7 7 0 0 0-6.29.26l-41.53 24c-1.85 1.07-2.06 2.7-.45 3.63z" class="Ap"/><g class="Ao"><path d="M296.02 245.76l39.65 22.9a7 7 0 0 0 6.29-.26l41.53-24a2.56 2.56 0 0 0 1.53-2.1h0v1.57a2.53 2.53 0 0 1-1.53 2.12l-41.53 24a7 7 0 0 1-6.29.26l-39.65-22.9a1.89 1.89 0 0 1-1.08-1.53v-1.57a1.9 1.9 0 0 0 1.08 1.51zm26.86-13.92l37.06 21.4a2.19 2.19 0 0 0 2-.08h0c.6-.34.66-.86.15-1.15l-37.07-21.4a2.19 2.19 0 0 0-2 .08h0c-.6.34-.65.86-.14 1.15zm-4.08 2.36l37.06 21.4a2.22 2.22 0 0 0 2-.08h0c.58-.34.65-.86.14-1.15l-37.07-21.4a2.19 2.19 0 0 0-2 .08h0c-.58.34-.64.86-.13 1.15zm-4.06 2.3l37.06 21.4a2.25 2.25 0 0 0 2-.08h0c.6-.34.65-.86.14-1.15l-37.06-21.4a2.22 2.22 0 0 0-2 .08h0c-.6.38-.65.9-.14 1.15zm16.86 14.48l16.12 9.3a2.25 2.25 0 0 0 2-.08h0c.6-.34.65-.86.14-1.15l-16.13-9.3a2.19 2.19 0 0 0-2 .08h0c-.58.34-.64.85-.13 1.15zm-2.5-22.65l36.93 21.35a2.36 2.36 0 0 0 2.14-.09l10.52-6.1c.63-.36.7-.9.15-1.23l-36.9-21.34a2.35 2.35 0 0 0-2.14.09l-10.52 6.07c-.66.4-.73.92-.18 1.24zm-28.16 16.24l37 21.32a2.35 2.35 0 0 0 2.14-.09l5-2.9c.63-.37.7-.92.15-1.24l-36.93-21.32a2.42 2.42 0 0 0-2.14.09l-5 2.9c-.68.36-.74.92-.22 1.23zm-4.92 4.03l39.65 22.9a7 7 0 0 0 6.29-.26l41.53-24a2.56 2.56 0 0 0 1.53-2.09h0v1.56a2.56 2.56 0 0 1-1.53 2.13l-41.53 24a7 7 0 0 1-6.29.26l-39.65-22.9a1.87 1.87 0 0 1-1.08-1.53v-1.57a1.89 1.89 0 0 0 1.08 1.49z"/></g><path d="M296.02 247.35l39.65 22.9a7 7 0 0 0 6.29-.26l41.53-24a3.15 3.15 0 0 0 1.38-1.42c.4.88-.07 1.9-1.38 2.67l-41.53 24a7 7 0 0 1-6.29.26l-39.65-22.9a1.71 1.71 0 0 1-.94-2.23 2.14 2.14 0 0 0 .94.98z" class="Ap"/><path d="M296.02 251.44l39.65 22.9a7 7 0 0 0 6.29-.26l41.53-24a2.56 2.56 0 0 0 1.53-2.09h0v1.56a2.56 2.56 0 0 1-1.53 2.13l-41.53 24a7 7 0 0 1-6.29.26l-39.65-22.9a1.89 1.89 0 0 1-1.08-1.54v-1.57a1.9 1.9 0 0 0 1.08 1.51z" class="Ao"/><use xlink:href="#AN" class="Ap"/><path d="M296.02 254.28l39.65 22.9a7 7 0 0 0 6.29-.26l41.53-24a2.56 2.56 0 0 0 1.53-2.1h0v1.57a2.53 2.53 0 0 1-1.53 2.12l-41.55 24a7 7 0 0 1-6.29.26L296 255.87a1.89 1.89 0 0 1-1.08-1.53v-1.57a1.9 1.9 0 0 0 1.1 1.51z" class="Ao"/><g class="Ap"><path d="M296.02 253.03l39.65 22.9a7 7 0 0 0 6.29-.26l41.53-24a3.15 3.15 0 0 0 1.38-1.42c.4.87-.07 1.9-1.38 2.67l-41.53 24a7 7 0 0 1-6.29.26l-39.65-22.9a1.71 1.71 0 0 1-.94-2.23 2.14 2.14 0 0 0 .94.98z"/><ellipse cx="227.38" cy="376.58" rx="20.58" ry="11.88"/></g><g transform="translate(-40.06 -44.5)"><path d="M282 429.5c-8 4.64-21.06 4.64-29.1 0-4-2.3-6-5.32-6-8.33v7.33c0 3.06 2 6.13 6 8.47 8 4.64 21.07 4.64 29.1 0 4-2.34 6.06-5.4 6-8.47v-7.33c0 3-2 6.02-6 8.33z" fill="url(#l)"/><path d="M254.8 417.8c7-4 18.3-4 25.27 0a10.28 10.28 0 0 1 4.89 5.28c1.12-3.26-.5-6.77-4.9-9.3-7-4-18.3-4-25.27 0-4.38 2.53-6 6-4.9 9.3a10.28 10.28 0 0 1 4.89-5.28z" fill="url(#m)"/><path d="M280.07 417.8c-7-4-18.3-4-25.27 0a10.28 10.28 0 0 0-4.89 5.28 10.26 10.26 0 0 0 4.89 5.29c7 4 18.3 4 25.27 0a10.3 10.3 0 0 0 4.89-5.29 10.37 10.37 0 0 0-4.89-5.28z" fill="url(#n)"/></g><g fill="#fad04b"><path d="M225.85 299.5h-2.34v-2.34a.78.78 0 0 0-1.56 0v2.34h-2.34a.78.78 0 0 0 0 1.56h2.33v2.34a.78.78 0 0 0 1.56 0v-2.34h2.34a.78.78 0 0 0 0-1.56zm12.8 19.24h-2.35v-2.34a.77.77 0 0 0-.77-.78.78.78 0 0 0-.78.78v2.34h-2.35a.78.78 0 0 0 0 1.56h2.35v2.34a.78.78 0 0 0 .78.78.77.77 0 0 0 .77-.78v-2.34h2.35a.78.78 0 0 0 0-1.56zM223.6 343.5h-2.34v-2.34a.78.78 0 0 0-1.56 0v2.34h-2.34a.78.78 0 0 0 0 1.56h2.34v2.35a.78.78 0 0 0 1.56 0v-2.35h2.34a.78.78 0 0 0 0-1.56zm10.6 18.4h-2.35v-2.34a.77.77 0 0 0-.77-.78.78.78 0 0 0-.78.78v2.34h-2.37a.78.78 0 0 0 0 1.56h2.35v2.34a.78.78 0 0 0 .78.78.77.77 0 0 0 .77-.78v-2.3h2.35a.78.78 0 0 0 0-1.56z"/></g><circle cx="231.09" cy="308.05" r="1.66" fill="url(#o)"/><g transform="translate(-40.06 -44.5)"><path d="M278.91,379.4a1.66,1.66,0,1,1-1.66-1.66A1.66,1.66,0,0,1,278.91,379.4Z" fill="url(#p)"/><path d="M266.45,397.72a1.66,1.66,0,1,1-1.66-1.66A1.66,1.66,0,0,1,266.45,397.72Z" fill="url(#q)"/><path d="M272.05,384.87a1.66,1.66,0,1,1-1.66-1.66A1.66,1.66,0,0,1,272.05,384.87Z" fill="url(#r)"/><path d="M259.32,379.4a1.66,1.66,0,1,1-1.66-1.66A1.66,1.66,0,0,1,259.32,379.4Z" fill="url(#s)"/><path d="M265.65,364.4a1.66,1.66,0,1,1-1.66-1.66A1.66,1.66,0,0,1,265.65,364.4Z" fill="url(#t)"/><path d="M277.25,340.33a1.66,1.66,0,1,1-1.66-1.66A1.67,1.67,0,0,1,277.25,340.33Z" fill="url(#u)"/><path d="M260.55,335.3a1.66,1.66,0,1,1-1.66-1.66A1.66,1.66,0,0,1,260.55,335.3Z" fill="url(#v)"/></g><g class="Aq"><use xlink:href="#AO"/><path d="M226.16 285.393l4.172-4.172 4.172 4.172-4.172 4.172zm6.86 62.267l4.172-4.172 4.172 4.172-4.172 4.172zm-11.597-18.14l4.172-4.172 4.172 4.172-4.172 4.172z"/></g><g transform="translate(-40.06 -44.5)"><path d="M250 420.66c-.2 2.77 1.53 5.6 5.2 7.7 7 4 18.3 4 25.27 0 3.67-2.12 5.4-4.94 5.2-7.7V294.5c.2-2.78-1.53-5.6-5.2-7.72-7-4-18.3-4-25.27 0-3.67 2.12-5.4 4.94-5.2 7.72z" fill="url(#w)"/><path d="M123.47 222l-73 42.16c-5.72 3.3-10.4 11.4-10.4 18v8.77c0 6.6 4.67 9.3 10.4 6l54.34-31.38-3.3 17.16 18.8-26.1 3.17-1.83c5.72-3.3 10.4-11.4 10.4-18V228c-.02-6.63-4.7-9.33-10.4-6z" fill="url(#x)"/></g><g class="Ap"><path class="AS" d="M82.4 191.78l-71 41c-.74.42-1.34 0-1.34-1h0a3.22 3.22 0 0 1 1.34-2.56l71-41c.74-.43 1.34 0 1.34 1h0a3.21 3.21 0 0 1-1.34 2.56zM46 222.03l-34.8 20.1c-.64.37-1.16 0-1.16-.88v-.47a2.81 2.81 0 0 1 1.16-2.27l34.8-20c.64-.37 1.16 0 1.16.88v.47a2.79 2.79 0 0 1-1.16 2.18z"/></g><path d="M124.94 223.7c0 .27.2.5.54.72.1.07 0-1.43.34-1.18.1.07 4.9 3.82 7.6 3.13a.57.57 0 0 0 .4-.58v-.6c0-.68-1-1.72-2.52-3.22-1.7-1.65-2.78-2.68-5.3-1.22-.73.42-1 .73-1 1z"/><path d="M131.3 221.95c2.05 2 3.17 3.18 2.12 3.8s-3.16-.3-5.32-1.94c-1.9-1.43-4.65-1.6-2.1-3.07s3.62-.43 5.3 1.22z" class="Aw"/><path d="M129.25 220.82l-.13-15.76a1.86 1.86 0 0 0-1.19-1.71l-1.23-.47-5.18 3.44 2.53 1.3a24.13 24.13 0 0 0 .77 8.44c0 0 .87 1.77.7 5.9 0 0 2.76.86 3.73-1.14z" class="Av"/><path d="M117.37 227.5c0 .27.18.5.54.72.1.07 0-1.43.33-1.18.1.07 4.92 3.82 7.6 3.13a.56.56 0 0 0 .4-.58v-.6c0-.68-1-1.72-2.5-3.22-1.7-1.65-2.78-2.68-5.32-1.22-.72.42-1 .73-1 1z"/><path d="M123.73 225.72c2.05 2 3.17 3.18 2.1 3.8s-3.15-.3-5.3-1.94c-1.9-1.43-4.65-1.6-2.12-3.07s3.62-.43 5.32 1.22z" class="Aw"/><path d="M121.67 224.77l-.15-18.45-6.1 2 1 3a22.31 22.31 0 0 0 .77 8.09c0 0 .87 1.77.7 5.9.05-.02 2.28 1.25 3.78-.55z" class="Av"/><path d="M116.2 187.55s6.8-6.18 2.65-17.17l-3.18 11.4z" class="Aq"/><path d="M124.25 202.6h0a2 2 0 0 1-2.48-1.35l-5.44-18.56a2 2 0 0 1 1.35-2.48h0a2 2 0 0 1 2.48 1.35l5.45 18.56a2 2 0 0 1-1.36 2.48z" class="Av"/><path d="M118.7 197.66l9.23 5.7s-3.2-.78-11.47 8l-9.07-5.23z" class="Aq"/><path d="M108.58 206.86a.54.54 0 0 0 .26.09c1.33.1 6.14-.95 10.95-6.37a2.49 2.49 0 0 0 .66-1.56v-15.4a2.52 2.52 0 0 0-1.08-2.34l-3.62-2.1a2.51 2.51 0 0 0-2.58.23l-4.93 2.85a8 8 0 0 0-3.63 6.27V204a.78.78 0 0 0 .35.74z" fill="#ffffeb"/><path d="M109.13 183.22a1.24 1.24 0 0 0 .74 1.05 4 4 0 0 0 3.61 0 1.26 1.26 0 0 0 .75-1.05v-3.36a1.28 1.28 0 0 0-.75-1.06 4 4 0 0 0-3.61 0 1.27 1.27 0 0 0-.74 1.06z" class="Ay"/><circle cx="111.68" cy="174.51" r="7.02" class="Av"/><path d="M113.76 187.55s-5.23-5.76-1.6-16.42l6.5 2.23s2.24-5.54-5.1-7.14c0 0-4.9-1.07-6.62 3 0 0-3.94.32-2.45 8.42 0-.01.22 7.67 9.28 9.9z" class="Aq"/><path d="M130.85 202.5l-13.23 7.6-10.15-5.53 13.54-7.75 9.84 5.67z" fill="#bdcefa"/><path d="M130.85 202.5l2.1-13.27-14.7 8.47-.63 12.4 13.23-7.6z" fill="url(#y)"/><path d="M120.24 203.06h0a2 2 0 0 1-2.82-.22l-12.48-14.63a2 2 0 0 1 .22-2.82h0a2 2 0 0 1 2.82.22l12.5 14.64a2 2 0 0 1-.23 2.81z" class="Av"/><path d="M223.38 215.92c-.24.1-.33.4-.35.8 0 .12 1.2-.7 1.16-.28 0 .12-.88 6 1 7.9a.56.56 0 0 0 .68.06l.5-.3c.6-.3 1-1.64 1.52-3.66.6-2.22.94-3.63-1.5-5.07-.7-.4-1.1-.5-1.33-.38z" class="Az"/><path d="M227.88 220.5c-.7 2.7-1.17 4.2-2.2 3.6s-1.24-2.8-.9-5.4c.3-2.28-.87-4.7 1.58-3.25s2.1 2.8 1.5 5.07z" class="Aw"/><path d="M243.65 203.3l-5 1.84-2 2.3a21.55 21.55 0 0 0-6.46 4.51c0 0-1.08 1.58-4.65 3.4 0 0 0 2.5 2.22 2.9l14.32-8.24a3.65 3.65 0 0 0 1.79-2.75 15.87 15.87 0 0 0-.22-3.98z" fill="#e28c66"/><path d="M233.1 228.6c0 .25.18.48.53.7.1.07 0-1.4.32-1.14.1.07 4.77 3.7 7.37 3a.54.54 0 0 0 .39-.56v-.6c0-.66-.94-1.67-2.44-3.12-1.64-1.6-2.7-2.6-5.15-1.2-.7.4-1 .7-1 1z" fill="#2d0d60"/><path d="M239.26 226.9c2 1.94 3.07 3.08 2.05 3.67s-3.06-.3-5.15-1.88c-1.83-1.4-4.5-1.56-2.05-3s3.5-.4 5.15 1.2z" class="Aw"/><path d="M237.26 225.98l-.14-17.88-4.85 1.57-.05 3.26a21.46 21.46 0 0 0 .75 7.84s.84 1.72.67 5.73c0 0 2.17 1.23 3.62-.52z" class="Av"/><path d="M250.5 200.92h0a1.94 1.94 0 0 1-2.56-1l-7.68-17a1.94 1.94 0 0 1 1-2.56h0a1.94 1.94 0 0 1 2.57 1l7.68 17a1.94 1.94 0 0 1-1.01 2.56z" fill="#e28c66"/><path d="M251.24 199l-12.02-6.94v-9.7l12.02 6.94v9.7z" fill="#bdcefa"/><path d="M248.28 196.37v-7.35l.26.14v7.36l-.26-.15z" fill="url(#z)"/><path d="M247.7 193.86v-5.18l.26.15V194l-.26-.14z" fill="url(#AA)"/><path d="M247.12 195.13v-6.8l.26.15v6.8l-.26-.15z" fill="url(#AB)"/><path d="M246.54 195.36V188l.26.15v7.35l-.26-.15z" fill="url(#AC)"/><path d="M245.96 190.37v-2.7l.26.15v2.7l-.26-.15z" fill="url(#AD)"/><g transform="translate(-40.06 -44.5)"><path d="M269.18 248.42V255s7.74 2.6 15-6.6V242z" fill="url(#AE)"/><path d="M272.68,250.47a.73.73,0,0,0,.25.08c1.3.1,6-.92,10.63-6.18a2.45,2.45,0,0,0,.63-1.51V227.94a2.45,2.45,0,0,0-1.05-2.28l-3.5-2a2.47,2.47,0,0,0-2.51.22l-4.78,2.77a7.78,7.78,0,0,0-3.51,6.08v15a.75.75,0,0,0,.34.72Z" fill="url(#AF)"/></g><path d="M233.94 183.03a1.21 1.21 0 0 0 .72 1 3.86 3.86 0 0 0 3.5 0 1.24 1.24 0 0 0 .73-1v-3.25a1.23 1.23 0 0 0-.73-1 3.86 3.86 0 0 0-3.5 0 1.2 1.2 0 0 0-.72 1z" class="Ay"/><path d="M220.78 204.38h0a1.94 1.94 0 0 1-.86-2.6l8.44-16.72a1.94 1.94 0 0 1 2.6-.85h0a1.94 1.94 0 0 1 .86 2.6l-8.44 16.7a1.93 1.93 0 0 1-2.6.88z" fill="#f9ab83"/><path d="M242.75 172.74l2.44 9.5a1.1 1.1 0 0 1-1.49 1.3l-5.63-2.34a1.09 1.09 0 0 1-.66-1.24l1.84-9.33a1.11 1.11 0 0 1 2-.37l1.34 2.2a1 1 0 0 1 .16.3z" class="Aq"/><g fill="#f9ab83"><path d="M234.18 178.42c0 .8-.57 1.14-1.27.74a2.85 2.85 0 0 1-1.28-2.21c0-.8.58-1.14 1.28-.73a2.8 2.8 0 0 1 1.27 2.2z"/><circle cx="236.43" cy="174.54" r="6.81"/></g><g class="Aq"><path d="M229.8 175.5s5.76 3.16 8.56-5a4.73 4.73 0 0 0 5.25 2.7 6.69 6.69 0 0 0-5.58-6.45s-9.85-1.08-8.23 8.75z"/><path d="M232.94 175.73l2.45 9.5a1.11 1.11 0 0 1-1.45 1.28l-5.63-2.35a1.11 1.11 0 0 1-.66-1.23l1.85-9.34a1.11 1.11 0 0 1 2-.36l1.34 2.18a1.17 1.17 0 0 1 .1.33z"/></g><path d="M272.17 321.6h0a1.89 1.89 0 0 0 2.48-.94l6.05-13.33a1.87 1.87 0 0 0-.93-2.48h0a1.87 1.87 0 0 0-2.48.93l-6.05 13.34a1.88 1.88 0 0 0 .93 2.48z" class="As"/><path d="M315.46 352l2-4.3a2.91 2.91 0 0 1 3.84-1.44h0a2.91 2.91 0 0 1 1.44 3.84l-1.95 4.3s-3 1.6-5.33-2.4z" transform="translate(-40.06 -44.5)" fill="url(#AG)"/><path d="M284.22 321.67a1.15 1.15 0 0 1 .14.57v6.36c0 1.24-1.25 2.27-2.8 2.3h0a2.61 2.61 0 0 1-2.87-2.21v-8.08a.72.72 0 0 1 .5-.69 4 4 0 0 1 5.04 1.75z" fill="#2c1049"/><path d="M297.53 334.3c.75.33.25 2.3.28 4.18 0 2.64-.52 5.14-1.68 5.84a.8.8 0 0 1-.78.08l-1.17-.65c-.7-.34-1.15-1.88-1.78-4.2-.7-2.55-1.12-4.16 1.68-5.84.8-.48 1.26-.6 1.52-.45z" class="Az"/><path d="M292.4 339.57c.84 3.07 1.38 4.8 2.54 4.1s1.4-3.24 1-6.22c-.37-2.6.95-5.4-1.84-3.72s-2.4 3.3-1.7 5.84z" fill="#1c1c38"/><path d="M291.87 337.2a1.34 1.34 0 0 1-.56-.16l-11.54-6.4a2.61 2.61 0 0 1-.59-3.58h0a2.61 2.61 0 0 1 3.34-1.39l13 7.23a.72.72 0 0 1 .36.77 4 4 0 0 1-4.01 3.53z" fill="#2c1049"/><path d="M290.1 346.67c.08.82-1.88 1.33-3.52 2.28-2.28 1.32-4.74 2-5.92 1.36a.79.79 0 0 1-.44-.65v-1.34c0-.76 1.08-1.9 2.8-3.6 1.9-1.84 3.1-3 5.9-1.35.8.46 1.14.8 1.14 1.1z" class="Az"/><path d="M283.02 344.73c-2.28 2.23-3.53 3.54-2.36 4.22s3.52-.34 5.92-2.16c2.1-1.6 5.18-1.78 2.35-3.4s-4-.5-5.9 1.35z" fill="#1c1c38"/><path d="M284.84 343.12a1.22 1.22 0 0 1-.13-.57v-19.58a2.61 2.61 0 0 1 2.84-2.26h0a2.61 2.61 0 0 1 2.84 2.26v21.3a.71.71 0 0 1-.51.69 4 4 0 0 1-5.04-1.83z" class="Aq"/><path d="M329.5 371a.62.62 0 0 1-.24.08c-1.25.1-5.76-.9-10.28-6a2.33 2.33 0 0 1-.61-1.46V349.2a2.38 2.38 0 0 1 1-2.21l3.4-2a2.4 2.4 0 0 1 2.42.22l4.63 2.68a7.52 7.52 0 0 1 3.39 5.88v14.52a.75.75 0 0 1-.32.7z" transform="translate(-40.06 -44.5)" fill="url(#AH)"/><path d="M288.14 304.3a1.2 1.2 0 0 1-.7 1 3.73 3.73 0 0 1-3.38 0 1.18 1.18 0 0 1-.7-1v-3.14a1.15 1.15 0 0 1 .7-1 3.73 3.73 0 0 1 3.38 0 1.17 1.17 0 0 1 .7 1z" fill="#e5a89c"/><path d="M300.94 324.96h0a1.89 1.89 0 0 0 .83-2.52l-6.6-13.07a1.87 1.87 0 0 0-2.52-.82h0a1.86 1.86 0 0 0-.82 2.51l6.6 13.07a1.89 1.89 0 0 0 2.52.83z" class="As"/><path d="M332 358.1l-2.13-4.22a2.92 2.92 0 0 1 1.28-3.9h0a2.92 2.92 0 0 1 3.9 1.28l2.13 4.22s-.64 3.3-5.18 2.62z" transform="translate(-40.06 -44.5)" fill="url(#AI)"/><path d="M279.1 296.14a6.59 6.59 0 0 0 11.25 4.66 6.59 6.59 0 0 0-4.66-11.25 6.59 6.59 0 0 0-6.59 6.59z" class="As"/><path d="M291.18 288.35c5.63 1.93 2.83 10.16-1.26 13.12-2-1.1.43-3.05-2.3-1.7-.55-2.65.68-1.84-.06-5.17-2.87 1.5-8.44-.32-9.3-3.08 1-.44 2.05-3.27 4.38-4.3 3-1.34 6.84-.72 8.55 1.13z" class="Aq BA"/><path d="M287.94 299.84c0 .8.55 1.1 1.23.7a2.7 2.7 0 0 0 1.23-2.13c0-.8-.55-1.1-1.23-.7a2.72 2.72 0 0 0-1.23 2.13z" class="As"/></g></g></g></g></svg>